<?xml version="1.0" standalone="no"?>
<!DOCTYPE svg PUBLIC "-//W3C//DTD SVG 1.1//EN" "http://www.w3.org/Graphics/SVG/1.1/DTD/svg11.dtd" >
<svg xmlns="http://www.w3.org/2000/svg">
<metadata></metadata>
<defs>
<font id="ainslie_norm_lightnorm_light" horiz-adv-x="1349" >
<font-face units-per-em="2048" ascent="1638" descent="-410" />
<missing-glyph horiz-adv-x="577" />
<glyph unicode="&#xfb01;" horiz-adv-x="1091" d="M68 913v9q0 16 5 21t21 5h150v185q0 178 87 277t265 99q180 0 258 -69q16 -14 16 -43q0 -25 -22 -15q-43 23 -64.5 33t-70.5 20.5t-109 10.5q-285 0 -285 -318v-180h517q37 0 36 -35v-792q0 -47 12.5 -64.5t47.5 -17.5q31 0 37 -2t6 -12q0 -43 -76 -43q-100 0 -100 112 v789h-480v-852q0 -20 -6 -25.5t-26 -5.5h-11q-20 0 -26 5t-6 26v852h-150q-18 0 -22 5t-4 25z" />
<glyph unicode="&#xfb02;" horiz-adv-x="1196" d="M76 831v9q0 18 5 22t21 4h222v267q0 377 368 376q195 0 269 -77q16 -18 16 -39v-1272q0 -47 12 -64.5t47 -17.5q31 0 37 -2t6 -12q0 -43 -75 -43q-102 0 -103 112v1297q-66 55 -196 55q-162 0 -234 -77t-72 -241v-262h318q16 0 21 -4t5 -22v-13q0 -18 -5 -22t-21 -4h-318 v-770q0 -20 -6 -25.5t-26 -5.5h-11q-20 0 -26 5t-6 26v770h-222q-16 0 -21 5t-5 25z" />
<glyph unicode="&#xfb03;" horiz-adv-x="1699" d="M82 909v13q0 27 29 26h131v191q0 174 91 272t277 98q209 0 308 -131q88 131 288 131q178 0 260 -69q14 -14 15 -43q0 -25 -23 -15q-115 63 -241 64q-287 0 -287 -318v-180h516q37 0 37 -35v-792q0 -47 12 -64.5t47 -17.5q31 0 37 -2t6 -12q0 -43 -74 -43q-102 0 -102 112 v789h-479v-852q0 -20 -6 -25.5t-25 -5.5h-12q-20 0 -25.5 5t-5.5 26v852h-539v-852q0 -20 -6 -25.5t-26 -5.5h-11q-20 0 -26 5t-6 26v852h-131q-29 0 -29 26zM317 948h539v185q0 111 33 190q-96 123 -277 123q-295 0 -295 -313v-185z" />
<glyph unicode="&#xfb04;" horiz-adv-x="1726" d="M82 909v13q0 27 29 26h131v191q0 174 91 272t277 98q211 0 308 -129q84 129 305 129q195 0 268 -77q16 -18 16 -39v-1272q0 -47 12.5 -64.5t47.5 -17.5q31 0 37 -2t6 -12q0 -43 -76 -43q-102 0 -102 112v1297q-61 55 -197 55q-162 0 -233.5 -77t-71.5 -241v-180h303 q16 0 21.5 -5t5.5 -21v-13q0 -18 -5.5 -22t-21.5 -4h-303v-852q0 -20 -6 -25.5t-25 -5.5h-12q-20 0 -25.5 5t-5.5 26v852h-539v-852q0 -20 -6 -25.5t-26 -5.5h-11q-20 0 -26 5t-6 26v852h-131q-29 0 -29 26zM317 948h539v185q0 111 31 190q-96 123 -275 123 q-295 0 -295 -313v-185z" />
<glyph horiz-adv-x="0" />
<glyph horiz-adv-x="682" />
<glyph horiz-adv-x="0" />
<glyph horiz-adv-x="0" />
<glyph unicode="&#xd;" horiz-adv-x="681" />
<glyph unicode=" "  horiz-adv-x="577" />
<glyph unicode="&#x09;" horiz-adv-x="577" />
<glyph unicode="&#xa0;" horiz-adv-x="577" />
<glyph unicode="!" horiz-adv-x="536" d="M215 35q0 49 51 49q55 0 56 -49q0 -47 -56 -47q-23 0 -37 13.5t-14 33.5zM229 252v1163q0 23 6.5 29t28.5 6h8q23 0 28 -6t5 -29v-1163q0 -23 -5 -28t-28 -5h-8q-25 0 -30 5t-5 28z" />
<glyph unicode="&#x22;" horiz-adv-x="765" d="M174 1438q-2 27 21 26h34q23 0 23 -28l-8 -367q0 -16 -17 -16h-28q-15 0 -15 16zM512 1438q-2 27 20 26h35q23 0 23 -28l-8 -367q0 -16 -17 -16h-28q-15 0 -15 16z" />
<glyph unicode="#" horiz-adv-x="1560" d="M100 436v15q0 18 5.5 22t25.5 4h252l225 486h-233q-23 0 -28 4t-5 22v15q0 18 5 22t28 4h264l180 389q14 31 39 31h29q18 0 21 -8t-5 -27l-178 -385h385l180 389q14 31 39 31h29q18 0 21 -8.5t-5 -26.5l-178 -385h236q20 0 25 -4t5 -22v-15q0 -18 -5 -22t-25 -4h-269 l-225 -486h248q20 0 25.5 -4t5.5 -22v-15q0 -18 -5.5 -22t-25.5 -4h-279l-174 -377q-14 -33 -43 -33h-22q-20 0 -23.5 8t6.5 29l172 373h-387l-174 -377q-14 -33 -43 -33h-22q-20 0 -23.5 8t6.5 29l172 373h-221q-20 0 -25.5 4t-5.5 22zM467 477h387l225 486h-387z" />
<glyph unicode="$" horiz-adv-x="1091" d="M106 139q0 31 35 8q182 -106 394 -106q186 0 278 87t92 245q0 102 -40 178t-103.5 119t-141 77.5t-155.5 66.5t-141.5 72t-103.5 107.5t-40 161.5q0 160 101.5 244t271.5 90v131q0 23 6 29t27 6h8q20 0 27.5 -7.5t7.5 -27.5v-131q137 -4 260 -55q47 -20 47 -66 q0 -16 -29 -6q-147 61 -323 61q-154 0 -240 -68.5t-86 -195.5q0 -82 40 -140t103.5 -93t141.5 -65t154.5 -66.5t140 -84.5t103.5 -133t40 -200q0 -168 -87 -272.5t-265 -124.5v-162q0 -29 -6.5 -36t-26.5 -7h-12q-20 0 -25.5 6t-5.5 37v155h-14q-207 0 -365 82 q-68 35 -68 84z" />
<glyph unicode="%" horiz-adv-x="1591" d="M100 1116q0 172 70 272.5t205 100.5q137 0 206.5 -99.5t69.5 -273.5q0 -172 -68.5 -270t-207.5 -98q-137 0 -206 99t-69 269zM170 1118q0 -129 51 -218t154 -89q104 0 155.5 89t51.5 218t-51.5 218t-155.5 89q-102 0 -153.5 -89t-51.5 -218zM415 8q-3 8 7 29l639 1382 q14 31 39 31h28q18 0 21.5 -8.5t-4.5 -26.5l-641 -1382q-14 -33 -43 -33h-23q-20 0 -23 8zM942 342q0 172 69.5 272.5t202.5 100.5q137 0 207 -99.5t70 -273.5q0 -172 -68.5 -270.5t-208.5 -98.5q-135 0 -203.5 99.5t-68.5 269.5zM1012 344q0 -131 50 -219t152 -88 q106 0 156.5 88t50.5 219q0 129 -51 218t-156 89q-102 0 -152 -89t-50 -218z" />
<glyph unicode="&#x26;" horiz-adv-x="1378" d="M123 362q0 70 22.5 127.5t53 95.5t88 76.5t99.5 59t114 53.5q-170 166 -170 359q0 338 311 337q313 0 313 -317q0 -147 -87 -234.5t-244 -162.5l426 -459q74 72 159 174q14 20 29 8l20 -18q21 -17 3 -35q-92 -106 -166 -178l174 -191q16 -16 0 -32l-17 -17q-18 -16 -34 0 l-175 191q-252 -225 -471 -226q-215 0 -331.5 101.5t-116.5 287.5zM201 356q0 -158 100 -236.5t270 -78.5q190 0 426 209q-331 362 -446 473q-88 -41 -133 -66.5t-104.5 -70.5t-86 -101.5t-26.5 -128.5zM401 1130q0 -76 29 -140t56.5 -96t84.5 -89q152 70 232 144.5 t80 201.5q0 256 -242 256q-240 -1 -240 -277z" />
<glyph unicode="'" horiz-adv-x="428" d="M174 1438q-2 27 21 26h34q23 0 23 -28l-8 -367q0 -16 -17 -16h-28q-15 0 -15 16z" />
<glyph unicode="(" horiz-adv-x="563" d="M139 725q0 166 59.5 369.5t157.5 367.5q20 31 31 33q6 2 14 2h21q35 0 12 -35q-100 -168 -157.5 -368.5t-59.5 -368.5h-78zM139 725q0 -166 59.5 -369.5t157.5 -367.5q20 -31 31 -33q6 -2 14 -2h21q35 0 12 35q-100 168 -157.5 368.5t-59.5 368.5h-78z" />
<glyph unicode=")" horiz-adv-x="563" d="M127 -12q100 170 158.5 370.5t60.5 366.5h78q0 -166 -59.5 -370.5t-157.5 -366.5q-20 -31 -31 -33q-6 -2 -14 -2h-21q-33 0 -14 35zM127 1462q-18 35 14 35h21q12 0 19 -4t10.5 -8t15.5 -23q98 -162 157.5 -366.5t59.5 -370.5h-78q-2 166 -60.5 366.5t-158.5 370.5z" />
<glyph unicode="*" horiz-adv-x="892" d="M80 1176l10 32q6 21 31 9l301 -115l-12 334q-2 23 12 22h39q18 0 18 -26l-10 -330l303 115q25 10 29 -11l10 -32q4 -18 -18 -25l-301 -92l200 -277q16 -20 4 -28l-30 -21q-20 -10 -31 12l-191 295l-186 -295q-12 -18 -33 -10l-28 19q-16 8 0 28l202 279l-301 90 q-25 6 -18 27z" />
<glyph unicode="+" horiz-adv-x="1050" d="M125 723v14q0 18 5 22.5t28 4.5h323v377q0 23 23 22h24q14 0 18.5 -4t4.5 -18v-377h344q20 0 25.5 -4t5.5 -23v-14q0 -18 -5.5 -22.5t-25.5 -4.5h-344v-362q0 -27 -25 -27h-20q-25 0 -25 27v362h-323q-23 0 -28 4.5t-5 22.5z" />
<glyph unicode="," horiz-adv-x="448" d="M84 -205q35 80 59.5 141.5t32.5 84t12 28.5q12 23 35 28t40.5 -9.5t12.5 -40.5q-2 -8 -7 -19.5t-20.5 -33t-30.5 -42t-49 -65.5t-65 -86q-8 -8 -16 -3t-4 17z" />
<glyph unicode="-" horiz-adv-x="806" d="M135 516v12q0 18 6 23.5t29 5.5h430q23 0 29 -5t6 -24v-12q0 -16 -6 -21.5t-29 -5.5h-430q-23 0 -29 4.5t-6 22.5z" />
<glyph unicode="." horiz-adv-x="446" d="M170 35q0 49 51 49q55 0 55 -49q0 -47 -55 -47q-23 0 -37 13.5t-14 33.5z" />
<glyph unicode="/" horiz-adv-x="1081" d="M76 31l852 1399q14 20 39 20h24q39 0 19 -31l-854 -1401q-12 -18 -33 -18h-39q-29 0 -8 31z" />
<glyph unicode="0" horiz-adv-x="1370" d="M156 719q0 344 135 550t395 206t394 -204t134 -552q0 -340 -132 -543t-396 -203t-397 203t-133 543zM233 721q0 -139 25 -257t76 -215t141 -153.5t211 -56.5q160 0 264.5 100.5t145.5 246.5t41 335q0 141 -25 260t-75 218t-140 154.5t-211 55.5q-160 0 -264.5 -99.5 t-146.5 -247.5t-42 -341z" />
<glyph unicode="1" horiz-adv-x="620" d="M88 1434q0 16 27 16h229q16 0 22.5 -6.5t6.5 -22.5v-1392q0 -16 -6.5 -22.5t-22.5 -6.5h-20q-16 0 -21.5 6t-5.5 23v1353h-135q-35 0 -54.5 16.5t-19.5 35.5z" />
<glyph unicode="2" horiz-adv-x="1114" d="M129 49q0 133 41 238.5t107.5 174t146.5 125t160 105.5t146.5 103.5t107.5 134.5t41 180q0 293 -322 293q-94 0 -172 -21.5t-112.5 -41t-86.5 -56.5q-29 -20 -28 12q0 39 39 70q123 104 360 104q195 0 297 -95t102 -265q0 -113 -41 -201t-106.5 -146t-145 -109.5 t-159.5 -103.5t-145.5 -113.5t-107.5 -155t-42 -213.5h739q20 0 25.5 -6.5t5.5 -20.5v-14q0 -18 -5.5 -22.5t-25.5 -4.5h-780q-25 0 -32 10t-7 39z" />
<glyph unicode="3" horiz-adv-x="1193" d="M102 120.5q0 26.5 29 14.5q203 -84 432 -84q211 0 310.5 96.5t99.5 260.5q0 166 -104.5 256t-309.5 90h-84q-20 0 -26.5 5t-6.5 21v15q0 16 6.5 21t26.5 5h82q145 0 229 78t84 229q0 145 -82.5 210t-255.5 65q-137 0 -311 -68q-35 -14 -35 11q0 43 52 65q119 59 311 59 q399 0 399 -344q0 -272 -237 -333q340 -43 340 -387q0 -188 -118 -305t-368 -117q-240 0 -395 63q-41 16 -54.5 31.5t-13.5 42z" />
<glyph unicode="4" horiz-adv-x="1153" d="M84 369l541 1020h-64q-16 0 -33.5 11t-17.5 32q0 18 20 18h123q80 0 39 -80l-504 -962h555v294q0 31 6.5 41.5t26.5 10.5h6q23 0 28 -9.5t5 -42.5v-294h234q20 0 25 -4.5t5 -22.5v-14q0 -18 -5 -22.5t-25 -4.5h-234v-305q0 -23 -7 -29t-28 -6h-8q-20 0 -24.5 6t-4.5 29 v305h-645q-27 0 -14 29z" />
<glyph unicode="5" horiz-adv-x="1138" d="M133 1434q0 16 27 16h762q27 0 26 -14q0 -53 -74 -54h-546v-467h153q524 0 525 -438q0 -504 -478 -504q-174 0 -290 39q-102 39 -103 88q0 18 9.5 19.5t39.5 -13.5q145 -66 340 -65q403 0 404 436q0 371 -457 371h-192q-18 0 -22.5 4t-4.5 25v512h-64q-55 6 -55 45z" />
<glyph unicode="6" horiz-adv-x="1208" d="M158 655q0 813 542 813q123 0 212 -30.5t89 -87.5q0 -25 -26 -9q-102 59 -268 60q-127 0 -219.5 -50.5t-144.5 -144.5t-77.5 -209.5t-29.5 -265.5q164 164 399 164q190 0 313 -103.5t123 -308.5q0 -236 -113.5 -373t-326.5 -137q-248 0 -360.5 170t-112.5 512zM233 651 q0 -307 90.5 -458.5t307.5 -151.5q174 0 268 116.5t94 323.5q0 178 -100 262t-264 84q-242 0 -396 -176z" />
<glyph unicode="7" horiz-adv-x="1013" d="M86 1431.5q0 18.5 27 18.5h825q33 0 18 -33l-686 -1390q-12 -27 -34 -27h-43q-25 0 -13 31l674 1351h-694q-35 0 -54.5 15.5t-19.5 34z" />
<glyph unicode="8" horiz-adv-x="1288" d="M143 387q0 168 91.5 271.5t238.5 125.5q-98 27 -161.5 110t-63.5 226q0 178 104.5 264t292.5 86q395 0 395 -350q0 -143 -63.5 -226t-161.5 -110q150 -23 240 -126t90 -271q0 -217 -135.5 -315.5t-364.5 -98.5q-231 0 -366.5 98.5t-135.5 315.5zM223 385q0 -180 120 -262 t302 -82t302 82t120 262q0 158 -102.5 258t-319.5 100q-219 0 -320.5 -100t-101.5 -258zM326 1118q0 -139 77.5 -223t241.5 -84q162 0 241 85t79 222q0 285 -319.5 285t-319.5 -285z" />
<glyph unicode="9" horiz-adv-x="1212" d="M154 956q0 236 111.5 374t318.5 138q246 0 357.5 -181t111.5 -539q0 -774 -518 -775q-106 0 -202.5 26t-139.5 67q-29 25 -29 61q0 29 24 14q121 -100 340 -100q412 0 445 584q-160 -131 -389 -131q-186 0 -308 116.5t-122 345.5zM231 958q0 -201 100.5 -299t256.5 -98 q240 0 387 144q0 6 1 21t1 24q0 328 -90 489.5t-301 161.5q-170 0 -262.5 -118t-92.5 -325z" />
<glyph unicode=":" horiz-adv-x="450" d="M172 35q0 49 51 49q55 0 56 -49q0 -47 -56 -47q-23 0 -37 13.5t-14 33.5zM172 731q0 49 51 49q55 0 56 -49q0 -47 -56 -47q-23 0 -37 13.5t-14 33.5z" />
<glyph unicode=";" horiz-adv-x="462" d="M86 -205q35 80 59.5 141.5t32.5 84t12 28.5q12 23 35 28t40.5 -9.5t13.5 -40.5q-2 -8 -7.5 -19.5t-20.5 -33t-30.5 -42t-49.5 -65.5t-65 -86q-8 -8 -16 -3t-4 17zM184 731q0 49 52 49q55 0 55 -49q0 -47 -55 -47q-23 0 -37.5 13.5t-14.5 33.5z" />
<glyph unicode="&#x3c;" horiz-adv-x="989" d="M96 483q0 23 29 45l637 426q20 12 39 13h41q23 0 22.5 -12.5t-16.5 -20.5l-668 -451h-84zM96 483q0 -23 29 -45l637 -426q20 -12 39 -12h41q23 0 22.5 12.5t-16.5 20.5l-668 450h-84z" />
<glyph unicode="=" horiz-adv-x="1169" d="M184 354v15q0 18 5.5 22t27.5 4h737q20 0 25.5 -4t5.5 -22v-15q0 -18 -5 -22t-26 -4h-737q-23 0 -28 4t-5 22zM184 764v14q0 18 5.5 22.5t27.5 4.5h737q20 0 25.5 -4t5.5 -23v-14q0 -18 -5 -22.5t-26 -4.5h-737q-23 0 -28 4t-5 23z" />
<glyph unicode="&#x3e;" horiz-adv-x="989" d="M124.5 12.5q0.5 12.5 16.5 20.5l668 450h84q0 -25 -29 -45l-635 -426q-23 -12 -41 -12h-41q-23 0 -22.5 12.5zM125 954.5q0 12.5 22 12.5h41q18 0 41 -13l635 -426q29 -20 29 -45h-84l-668 451q-16 8 -16 20.5z" />
<glyph unicode="?" horiz-adv-x="980" d="M92 1335q0 43 119 89t260 46q197 0 296 -94t99 -264q0 -102 -40 -179t-97 -128t-115.5 -102.5t-98.5 -128t-40 -179.5v-49q0 -20 -18 -20h-41q-16 0 -17 20v47q0 113 40 198t97.5 139t115 104.5t97 119t39.5 156.5q0 137 -79.5 215t-241.5 78q-193 0 -344 -92 q-18 -10 -24.5 -6t-6.5 30zM385 35q0 49 51 49q55 0 56 -49q0 -47 -56 -47q-23 0 -37 13.5t-14 33.5z" />
<glyph unicode="@" horiz-adv-x="1656" d="M150 715q0 311 184 517t495 206q317 0 504 -182.5t187 -456.5q0 -66 -12.5 -133.5t-42 -142t-92 -121t-150.5 -46.5q-59 0 -107.5 30t-64 52.5t-37.5 61.5q-92 -88 -219 -88q-113 0 -180.5 76.5t-67.5 203.5q0 137 67.5 220t182.5 83q102 0 200 -65v53q0 6 6.5 11t10.5 5 h28q18 0 19 -16v-408q0 -47 49 -103t119 -56q66 0 113 41t70.5 104.5t32.5 121.5t9 114q0 248 -168 412.5t-459 164.5q-285 0 -447.5 -188.5t-162.5 -468.5q0 -322 162 -488t414 -166q301 0 460 144q16 18 29 6l21 -23q8 -12 -5 -24q-158 -166 -505 -166q-283 0 -463 180 t-180 535zM616 692q0 -90 48.5 -154.5t136.5 -64.5q133 0 196 98v295q-86 66 -194 66q-84 0 -135.5 -64.5t-51.5 -175.5z" />
<glyph unicode="A" d="M100 27l508 1362h-65q-54 4 -54 45q0 16 27 16h176q23 0 33 -23l522 -1400q3 -7 3 -12q0 -15 -21 -15h-31q-23 0 -33 25l-168 452h-651l-166 -452q-10 -25 -37 -25h-24q-22 0 -22 15q0 5 3 12zM371 545h602l-299 815z" />
<glyph unicode="B" horiz-adv-x="1275" d="M123 1434q0 16 27 16h489q211 0 306 -98.5t95 -259.5q0 -264 -221 -330q324 -47 324 -369q0 -393 -463 -393h-401q-20 0 -27.5 5t-7.5 24v1360h-68q-53 6 -53 45zM319 68h353q393 0 393 325q0 330 -393 330h-353v-655zM319 788h345q145 0 222 80t77 222q0 292 -334 292 h-310v-594z" />
<glyph unicode="C" horiz-adv-x="1357" d="M145 711q0 365 177.5 572.5t527.5 207.5q246 0 367 -96q36 -28 36 -60q0 -18 -8 -19t-37 15q-170 92 -356 92q-319 0 -475 -192.5t-156 -521.5q0 -315 153.5 -491.5t477.5 -176.5q90 0 164 12.5t114.5 25.5t112.5 44q27 12 27 -14q0 -23 -21 -41q-43 -37 -151.5 -66 t-249.5 -29q-350 0 -526.5 192t-176.5 546z" />
<glyph unicode="D" horiz-adv-x="1495" d="M125 1434q0 16 27 16h501q346 0 520.5 -192.5t174.5 -530.5q0 -336 -175.5 -531.5t-519.5 -195.5h-372q-20 0 -27.5 5t-7.5 24v1360h-68q-53 6 -53 45zM322 68h331q313 0 465 183t152 478q0 299 -150 476t-467 177h-331v-1314z" />
<glyph unicode="E" horiz-adv-x="1099" d="M125 1434q0 16 27 16h817q27 0 26 -14q0 -53 -75 -54h-598v-594h526q27 0 26 -14q0 -53 -73 -53h-479v-653h626q23 0 29 -5.5t6 -21.5v-12q0 -18 -6 -23.5t-29 -5.5h-667q-20 0 -27.5 5t-7.5 24v1360h-68q-53 6 -53 45z" />
<glyph unicode="F" horiz-adv-x="1044" d="M145 1434q0 16 27 16h789q26 0 26 -14q0 -53 -76 -54h-592v-602h515q27 0 26 -14q0 -53 -76 -53h-465v-684q0 -16 -6 -22.5t-22 -6.5h-21q-16 0 -21 6t-5 23v1360h-43q-55 6 -56 45z" />
<glyph unicode="G" horiz-adv-x="1521" d="M145 723q0 358 180.5 562t553.5 204q281 0 438 -119q31 -20 31 -57q0 -27 -19 -15q-66 37 -112 58.5t-137 43t-197 21.5q-340 0 -499 -184t-159 -510q0 -317 155 -501.5t499 -184.5q225 0 397 80v545h-289q-25 0 -42 14.5t-17 34.5q0 18 28 18h367q18 0 23.5 -6t5.5 -31 v-592q0 -31 -25 -41q-213 -90 -448 -90q-379 0 -556.5 201t-177.5 549z" />
<glyph unicode="H" horiz-adv-x="1447" d="M125 1434q0 16 27 16h141q18 0 23.5 -6t5.5 -23v-630h813v630q0 16 6 22.5t22 6.5h19q16 0 22 -6t6 -23v-1392q0 -16 -6 -22.5t-22 -6.5h-19q-16 0 -22 6t-6 23v694h-813v-694q0 -29 -27 -29h-21q-16 0 -22 6t-6 23v1360h-68q-53 4 -53 45z" />
<glyph unicode="I" horiz-adv-x="557" d="M123 1434q0 16 27 16h141q18 0 23 -6t5 -23v-1392q0 -16 -5 -22.5t-21 -6.5h-21q-16 0 -22 6t-6 23v1360h-66q-55 6 -55 45z" />
<glyph unicode="J" horiz-adv-x="1011" d="M55 133q0 27 29 10q57 -35 91 -52t97.5 -33.5t137.5 -16.5q143 0 223 79t80 267v1002h-68q-55 6 -55 45q0 16 26 16h138q25 0 29.5 -6t4.5 -29v-1028q0 -414 -370 -414q-178 0 -326 97q-37 23 -37 63z" />
<glyph unicode="K" horiz-adv-x="1183" d="M125 1434q0 16 27 16h141q16 0 22.5 -6t6.5 -23v-608l663 594q31 31 42 37t38 6h14q21 0 21 -11q0 -12 -27 -38l-665 -600l700 -752q22 -24 22 -36.5t-22 -12.5h-16q-25 0 -33 5t-31 28l-706 753v-757q0 -29 -27 -29h-21q-16 0 -22 6t-6 23v1360h-66q-55 6 -55 45z" />
<glyph unicode="L" horiz-adv-x="966" d="M123 1434q0 16 27 16h141q18 0 23 -6t5 -23v-1353h555q23 0 29 -5.5t6 -21.5v-12q0 -18 -6 -23.5t-29 -5.5h-602q-16 0 -22 6t-6 23v1360h-66q-55 6 -55 45z" />
<glyph unicode="M" horiz-adv-x="1851" d="M125 1434q0 16 27 16h157q25 0 37 -10t23 -41l553 -1317l565 1313q20 55 67 55h31q16 0 22.5 -6.5t6.5 -22.5v-1392q0 -16 -6 -22.5t-23 -6.5h-20q-27 0 -27 29v1310l-563 -1314q-8 -25 -39 -25h-27q-20 0 -28.5 5t-16.5 24l-542 1302v-1302q0 -29 -27 -29h-21 q-16 0 -22 6t-6 23v1360h-68q-53 6 -53 45z" />
<glyph unicode="N" horiz-adv-x="1470" d="M123 1434q0 16 27 16h167q25 0 52 -47l788 -1301v1319q0 16 6 22.5t23 6.5h18q16 0 22.5 -6.5t6.5 -22.5v-1392q0 -16 -6 -22.5t-23 -6.5h-43q-20 0 -35 20l-800 1323v-1314q0 -16 -6.5 -22.5t-22.5 -6.5h-21q-27 0 -26 29v1360h-72q-55 6 -55 45z" />
<glyph unicode="O" horiz-adv-x="1634" d="M143 723q0 221 72 390t226.5 272.5t375.5 103.5q332 0 503 -213t171 -553q0 -221 -68.5 -385t-223.5 -264.5t-382 -100.5q-334 0 -504 206t-170 544zM221 725q0 -139 33 -258t100.5 -216t186 -153.5t276.5 -56.5t276.5 56.5t186.5 153.5t100.5 216t32.5 258 q0 141 -32.5 262t-101.5 220.5t-186.5 156.5t-275.5 57t-275.5 -57t-186 -156.5t-101.5 -220.5t-33 -262z" />
<glyph unicode="P" horiz-adv-x="1179" d="M123 1434q0 16 27 16h425q225 0 361.5 -105.5t136.5 -314.5q0 -227 -134 -332.5t-364 -105.5h-256v-563q0 -16 -5 -22.5t-21 -6.5h-21q-16 0 -22 6t-6 23v1360h-68q-53 6 -53 45zM319 657h256q420 0 420 375q0 178 -110.5 265t-309.5 87h-256v-727z" />
<glyph unicode="Q" horiz-adv-x="1632" d="M143 723q0 221 72 390t226.5 272.5t375.5 103.5q332 0 503 -213t171 -553q0 -299 -132 -496.5t-396 -240.5q55 -20 110 -52l379 -225q115 -59 172 -59h4q27 0 52.5 8t39 14t17.5 4q10 -2 10 -18q0 -33 -38 -54.5t-93 -21.5q-76 0 -186 60l-369 219q-142 78 -237 78h-13 q-41 0 -84 -15.5t-65.5 -25t-26.5 -0.5q-6 8 -6 24q0 33 63 60q-272 39 -410.5 237.5t-138.5 503.5zM221 725q0 -139 33 -258t100.5 -216t186 -153.5t276.5 -56.5t276.5 56.5t186.5 153.5t100.5 216t32.5 258q0 141 -32.5 262t-101.5 220.5t-186.5 156.5t-275.5 57 t-275.5 -57t-186 -156.5t-101.5 -220.5t-33 -262z" />
<glyph unicode="R" horiz-adv-x="1253" d="M123 1434q0 16 27 16h428q225 0 360 -105.5t135 -314.5q0 -340 -307 -418l262 -487q18 -35 38.5 -52.5t33 -20.5t35.5 -3q29 0 28 -12q0 -45 -61 -45q-43 0 -76 21.5t-68 84.5l-266 500q-55 -6 -114 -6h-259v-563q0 -16 -5 -22.5t-21 -6.5h-21q-16 0 -22 6t-6 23v1360 h-66q-55 6 -55 45zM319 657h259q417 0 417 373q0 180 -109 267t-308 87h-259v-727z" />
<glyph unicode="S" horiz-adv-x="1114" d="M106 139q0 31 35 8q182 -106 394 -106q186 0 278 87t92 245q0 102 -40 178t-103.5 119t-141 77.5t-155.5 66.5t-141.5 72t-103.5 107.5t-40 161.5q0 166 109.5 251t290.5 85q178 0 309 -57q47 -20 47 -66q0 -16 -29 -6q-147 61 -323 61q-154 0 -240 -68.5t-86 -195.5 q0 -82 40 -140t103.5 -93t141.5 -65t154.5 -66.5t140 -84.5t103.5 -133t40 -200q0 -188 -108.5 -296t-333.5 -108q-207 0 -365 82q-68 35 -68 84z" />
<glyph unicode="T" horiz-adv-x="1120" d="M47 1431.5q0 18.5 27 18.5h952q23 0 29 -5t6 -22v-12q0 -18 -6 -23.5t-29 -5.5h-428v-1353q0 -16 -5 -22.5t-22 -6.5h-20q-16 0 -22.5 6t-6.5 23v1353h-399q-37 0 -56.5 15.5t-19.5 34z" />
<glyph unicode="U" horiz-adv-x="1419" d="M119 1434q0 16 26 16h138q23 0 27.5 -6t4.5 -29v-946q0 -193 97.5 -311.5t296.5 -118.5q215 0 314 117.5t99 312.5v920h-67q-55 6 -56 45q0 16 27 16h137q25 0 30 -6t5 -29v-948q0 -229 -122 -361.5t-367 -132.5q-233 0 -351 133.5t-118 360.5v922h-66q-55 6 -55 45z" />
<glyph unicode="V" horiz-adv-x="1316" d="M35 1436q0 14 18 14h125q25 0 33 -7t18 -32l435 -1317l469 1295h-62q-55 6 -55 45q0 16 20 16h150q37 0 37 -27q0 -11 -6 -26l-506 -1381q-10 -24 -31 -24h-2h-35q-23 0 -31 24l-456 1373h-74q-47 4 -47 47z" />
<glyph unicode="W" horiz-adv-x="1939" d="M20 1436q0 14 21 14h125q27 0 37 -10t20 -47l371 -1311l340 1335q6 20 13 26.5t30 6.5h24q18 0 25.5 -7t11.5 -28l342 -1333l369 1307h-68q-47 8 -47 47q0 14 23 14h135q31 0 38 -9q3 -4 3 -13q0 -14 -6 -39l-393 -1358q-6 -23 -13.5 -31t-21.5 -8h-33q-20 0 -27.5 6 t-13.5 29l-340 1329l-342 -1333q-8 -31 -41 -31h-24q-31 0 -37 28l-396 1366l-88 5q-37 4 -37 45z" />
<glyph unicode="X" horiz-adv-x="1236" d="M57 1436q0 14 27 14h115q25 0 45 -31l391 -594l420 605q14 20 39 20h20q42 0 19 -31l-455 -657l485 -735q10 -12 10 -20q-1 -4 -3 -5q-4 -2 -15 -2h-35q-27 0 -37 20l-448 680l-463 -669q-20 -31 -41 -31h-33q-33 0 -12 31l508 733l-414 627h-78q-45 2 -45 45z" />
<glyph unicode="Y" horiz-adv-x="1275" d="M23 1434q0 16 18 16h125q31 0 49 -33l432 -811l443 783h-72q-49 6 -49 45q0 16 22 16h162q30 0 30 -21q0 -14 -14 -38l-485 -867v-489q0 -23 -6 -29t-29 -6h-8q-23 0 -28 6t-5 29v495l-463 859h-69q-53 8 -53 45z" />
<glyph unicode="Z" horiz-adv-x="1069" d="M76 25v18q0 21 14 41l756 1298h-674q-35 0 -54.5 15.5t-19.5 34t27 18.5h801q20 0 20 -14v-19q0 -16 -16 -41l-764 -1308h792q20 0 25.5 -4.5t5.5 -22.5v-14q0 -18 -5 -22.5t-26 -4.5h-860q-23 0 -22 25z" />
<glyph unicode="[" horiz-adv-x="589" d="M225 -217v1638q0 16 6.5 22.5t24.5 6.5h199q26 0 26 -18.5t-19.5 -34t-53.5 -15.5h-105v-1560h148q23 0 26.5 -4t3.5 -23v-14q0 -18 -4 -22.5t-26 -4.5h-197q-16 0 -22.5 6.5t-6.5 22.5z" />
<glyph unicode="\" horiz-adv-x="1081" d="M72 1419q-18 31 18 31h25q27 0 39 -20l854 -1399q20 -31 -9 -31h-38q-23 0 -35 18z" />
<glyph unicode="]" horiz-adv-x="589" d="M104 -205q0 18 5.5 22.5t27.5 4.5h148v1560h-103q-37 0 -56.5 15.5t-19.5 34t27 18.5h199q18 0 23 -6t5 -23v-1638q0 -29 -26 -29h-197q-23 0 -28 4t-5 23v14z" />
<glyph unicode="^" horiz-adv-x="1105" d="M135 731l375 719q8 14 33 14h10v-73l-342 -666q-6 -16 -25 -16h-45q-20 0 -6 22zM553 1391l340 -666q10 -16 27 -16h45q18 0 6 22l-375 719q-8 14 -33 14h-10v-73z" />
<glyph unicode="_" horiz-adv-x="1454" d="M172 -115q0 18 4 22.5t27 4.5h938q20 0 25 -4t5 -23v-14q0 -18 -5 -22.5t-25 -4.5h-938q-23 0 -27 4.5t-4 22.5v14z" />
<glyph unicode="`" horiz-adv-x="1699" d="M381 1441.5q4 8.5 18 8.5h35q25 0 37 -18l203 -213q8 -10 5 -15.5t-11 -5.5h-39q-16 0 -29 16l-213 211q-10 8 -6 16.5z" />
<glyph unicode="a" horiz-adv-x="1071" d="M109 248q0 131 87 183t265 52q215 0 338 -18v98q0 182 -68.5 251t-247.5 69h-247q-66 0 -66 51q0 10 4 12t23 2h286q209 0 299 -83t90 -281v-453q0 -47 12.5 -64.5t49.5 -17.5q31 0 36 -2t5 -12q0 -43 -74 -43q-98 0 -102 104q-149 -108 -387 -108h-4q-299 0 -299 260z M182 246q0 -106 60.5 -150.5t177.5 -44.5q102 0 186 22.5t116 41t77 51.5v235q-102 18 -328 19q-147 0 -218 -35t-71 -139z" />
<glyph unicode="b" horiz-adv-x="1234" d="M94 1475q0 14 27 14h94q57 -2 57 -57v-715q104 244 387 244q213 0 330 -135.5t117 -358.5t-117 -353t-332 -130q-283 0 -385 227v-156q0 -63 -59 -63q-16 0 -16 26v1407h-54q-49 0 -49 50zM270 465q0 -174 93.5 -294t287.5 -120q184 0 280.5 114t96.5 302 q0 193 -96 309.5t-279 116.5q-190 0 -286.5 -125t-96.5 -303z" />
<glyph unicode="c" horiz-adv-x="1032" d="M127 463q0 231 120 365.5t347 134.5q203 0 301 -99q20 -23 20 -47q0 -31 -26 -14q-137 92 -291 92q-195 0 -294 -116.5t-99 -313.5q0 -190 95 -306t306 -116q147 0 295 82q29 12 31 4q2 -4 2 -10q0 -43 -41 -68q-111 -76 -297 -76q-236 0 -352.5 132.5t-116.5 355.5z" />
<glyph unicode="d" horiz-adv-x="1249" d="M127 467q0 223 117.5 358.5t328.5 135.5q283 0 390 -246v710h-56q-49 0 -49 50q0 14 27 14h94q57 -2 57 -57v-1301q0 -47 12.5 -64.5t47.5 -17.5q31 0 37 -2t6 -12q0 -43 -76 -43q-100 0 -100 112v107q-107 -227 -388 -227q-213 0 -330.5 131t-117.5 352zM205 467 q0 -188 96 -302t283 -114q193 0 287 120t94 294q0 178 -96.5 303t-286.5 125q-182 0 -279.5 -117t-97.5 -309z" />
<glyph unicode="e" horiz-adv-x="1118" d="M129 449q0 252 111.5 383t324.5 131t318.5 -127t105.5 -363q0 -39 -39 -39h-743q2 -219 111.5 -304t308.5 -85q180 0 325 94q33 20 33 -6q0 -43 -51 -76q-111 -80 -311 -80q-236 0 -365 105.5t-129 366.5zM207 498h708q-4 399 -348 399q-168 0 -259 -103.5t-101 -295.5z " />
<glyph unicode="f" horiz-adv-x="604" d="M82 913v9q0 27 29 26h131v234q0 154 64.5 240.5t197.5 86.5q137 0 137 -61q0 -25 -4 -28t-25 5q-41 20 -96 21q-199 0 -199 -268v-230h209q27 0 27 -26v-13q0 -16 -6 -21t-21 -5h-209v-852q0 -20 -6 -25.5t-26 -5.5h-11q-20 0 -26 5t-6 26v852h-131q-18 0 -23.5 5 t-5.5 25z" />
<glyph unicode="g" horiz-adv-x="1234" d="M129 469q0 223 118 358.5t328 135.5q283 0 390 -246v157q0 74 57 74q16 0 16 -39v-856q0 -133 -29.5 -230t-75.5 -152.5t-114.5 -87.5t-131 -42t-140.5 -10q-231 0 -359 82q-51 35 -51 65q0 37 35 13q150 -94 365 -94q70 0 122 8t112 35.5t100 74.5t67 133t27 205v164 q-102 -231 -387 -231q-215 0 -332 130t-117 353zM207 469q0 -188 96.5 -302t280.5 -114q188 0 282.5 113t100.5 278l-2 50q-6 170 -102.5 285.5t-279 115.5t-279.5 -116.5t-97 -309.5z" />
<glyph unicode="h" horiz-adv-x="1124" d="M92 1475q0 14 27 14h94q59 0 59 -57v-648q88 178 324 179q168 0 248 -91.5t80 -250.5v-500q0 -47 12 -64.5t47 -17.5q31 0 37 -2t6 -12q0 -43 -76 -43q-100 0 -100 112v522q0 281 -264 281q-137 0 -215 -73.5t-99 -196.5v-596q0 -20 -6 -25.5t-26 -5.5h-11q-20 0 -26 5 t-6 26v1394h-54q-51 0 -51 50z" />
<glyph unicode="i" horiz-adv-x="493" d="M188 1321q0 49 52 49q53 0 53 -49q0 -47 -53 -47q-23 0 -37.5 13.5t-14.5 33.5zM203 94v826q0 28 14 28q59 0 59 -57v-770q0 -47 12.5 -64.5t47.5 -17.5q31 0 37 -2t6 -12q0 -43 -76 -43q-100 0 -100 112z" />
<glyph unicode="j" horiz-adv-x="468" d="M10 -367q0 10 4 12.5t19 -1.5q33 -4 61 -4q102 0 103 102v1178q0 29 16 28q59 0 59 -57v-1153q0 -74 -37.5 -118t-109.5 -44q-115 0 -115 57zM166 1321q0 49 51 49q53 0 53 -49q0 -47 -53 -47q-23 0 -37 13.5t-14 33.5z" />
<glyph unicode="k" horiz-adv-x="909" d="M96 1475q0 14 27 14h92q59 0 59 -57v-871l451 375q25 27 51 27h25q47 0 12 -31l-465 -389l412 -418q6 -6 18.5 -19.5t16.5 -17.5t13 -14.5t13 -13.5t12.5 -9t14.5 -7t14 -3t17 -2q29 0 28 -10q0 -47 -61 -47q-35 0 -60.5 19t-89.5 89l-422 436v-495q0 -20 -6 -25.5 t-26 -5.5h-11q-20 0 -26 5t-6 26v1394h-54q-49 0 -49 50z" />
<glyph unicode="l" horiz-adv-x="495" d="M100 1475q0 14 27 14h90q59 0 59 -57v-1311q0 -47 12.5 -64.5t47.5 -17.5q31 0 37 -2t6 -12q0 -43 -76 -43q-100 0 -100 112v1331h-53q-49 0 -50 50z" />
<glyph unicode="m" horiz-adv-x="1638" d="M111 934q0 14 26 14h92q59 0 60 -57v-109q84 180 307 181q211 0 258 -195q72 195 305 195q285 0 285 -310v-532q0 -47 12 -64.5t47 -17.5q31 0 37 -2t6 -12q0 -43 -76 -43q-100 0 -100 112v549q0 254 -221 254q-125 0 -194.5 -71.5t-88.5 -190.5v-604q0 -20 -6 -25.5 t-24 -5.5h-13q-20 0 -25 5t-5 26v620q0 246 -209 246q-129 0 -203 -73.5t-92 -192.5v-600q0 -20 -6.5 -25.5t-24.5 -5.5h-12q-20 0 -25.5 5t-5.5 26v854h-55q-49 0 -49 49z" />
<glyph unicode="n" horiz-adv-x="1140" d="M111 934q0 14 26 14h92q59 0 60 -57v-107q88 178 323 179q168 0 248 -91.5t80 -250.5v-490q0 -47 12.5 -64.5t46.5 -17.5q31 0 37 -2t6 -12q0 -43 -75 -43q-100 0 -101 112v512q0 281 -264 281q-137 0 -215 -73.5t-98 -196.5v-596q0 -20 -6.5 -25.5t-26.5 -5.5h-10 q-20 0 -26.5 5t-6.5 26v854h-53q-49 0 -49 49z" />
<glyph unicode="o" horiz-adv-x="1196" d="M127 471q0 227 123 359.5t348 132.5q223 0 347 -133.5t124 -358.5t-124 -355t-347 -130q-225 0 -348 130t-123 355zM203 471.5q0 -192.5 102.5 -306.5t292.5 -114t292.5 114t102.5 306.5t-102.5 308t-292.5 115.5q-188 0 -291.5 -115.5t-103.5 -308z" />
<glyph unicode="p" horiz-adv-x="1251" d="M111 934q0 14 26 14h94q57 -4 58 -57v-170q106 240 387 240q211 0 328.5 -135.5t117.5 -358.5t-116.5 -353t-331.5 -130q-279 0 -385 225v-649q0 -20 -6.5 -25.5t-26.5 -5.5h-10q-20 0 -26.5 5t-6.5 26v1325h-53q-49 0 -49 49zM285 465q0 -174 94 -294t289 -120 q184 0 280 114t96 302q0 193 -97 309.5t-279 116.5q-190 0 -286.5 -125t-96.5 -303z" />
<glyph unicode="q" horiz-adv-x="1232" d="M127 467q0 223 117.5 358.5t328.5 135.5q283 0 390 -246v159q0 74 55 74q18 0 18 -39v-1349q0 -20 -6 -25.5t-24 -5.5h-13q-20 0 -25 5t-5 26v651q-107 -227 -388 -227q-213 0 -330.5 131t-117.5 352zM205 467q0 -188 96 -302t283 -114q193 0 287 120t94 294 q0 178 -96.5 303t-286.5 125q-182 0 -279.5 -117t-97.5 -309z" />
<glyph unicode="r" horiz-adv-x="712" d="M109 934q0 14 26 14h92q59 0 60 -57v-158q55 233 245 234q131 0 132 -60q0 -18 -3.5 -23t-15.5 -1q-56 18 -113 18q-119 0 -182 -126t-63 -349v-395q0 -20 -6.5 -25.5t-24.5 -5.5h-12q-18 0 -24.5 5t-6.5 26v854h-55q-49 0 -49 49z" />
<glyph unicode="s" horiz-adv-x="894" d="M106 94q0 14 4.5 17.5t12.5 1.5t27 -13q131 -61 280 -61q135 0 206 58.5t71 148.5q0 80 -57.5 128t-140.5 71.5t-166 49t-140.5 83t-57.5 149.5q0 119 85 177.5t237 58.5q109 0 193.5 -24t84.5 -60q0 -23 -6 -26t-34 5q-128 41 -234 41q-254 0 -254 -172q0 -72 58.5 -116 t141.5 -66.5t165 -48t140 -86t58 -158.5q0 -123 -87 -200t-259 -77q-170 0 -289 58q-25 10 -32 22.5t-7 38.5z" />
<glyph unicode="t" horiz-adv-x="638" d="M188 258v854q1 113 56 113q12 0 15 -5.5t3 -25.5v-246h270q18 0 22.5 -2t4.5 -12q0 -20 -19.5 -35.5t-56.5 -15.5h-221v-615q0 -121 38 -167t114 -46q86 0 153 47q25 12 25 -14.5t-10 -40.5q-53 -59 -189 -59q-106 0 -155.5 64.5t-49.5 205.5z" />
<glyph unicode="u" horiz-adv-x="1142" d="M100 934q0 14 27 14h94q59 0 60 -57v-576q0 -258 243 -258q147 0 230.5 76t103.5 199v553h-53q-51 0 -51 49q0 14 26 14h94q59 0 60 -57v-760q0 -47 12 -64.5t47 -17.5q31 0 37 -2t6 -12q0 -43 -75 -43q-102 0 -103 112v70q-92 -184 -342 -184q-311 0 -311 325v570h-55 q-49 0 -50 49z" />
<glyph unicode="v" horiz-adv-x="1132" d="M90 934q0 14 27 14h90q29 0 41 -11t24 -48l324 -811l313 723l37 84h-53q-47 0 -47 51q0 12 18 12h127q41 0 41 -32q0 -16 -10 -39l-377 -850q-10 -27 -37 -27h-30q-27 0 -35 27l-348 858h-54q-25 0 -38 15.5t-13 33.5z" />
<glyph unicode="w" horiz-adv-x="1624" d="M66 934q0 14 26 14h94q53 0 72 -55l279 -813l254 827q10 41 45 41h22q14 0 22.5 -6t11.5 -12t9 -21l262 -829l277 805h-64q-16 0 -31.5 13t-15.5 36q0 14 21 14h127q39 0 46 -13q2 -4 2 -10q0 -15 -12 -42l-294 -844q-12 -39 -45 -39h-25q-31 0 -43 37l-260 827 l-258 -827q-12 -37 -41 -37h-23q-20 0 -28.5 6t-16.5 31l-297 848h-67q-49 0 -49 49z" />
<glyph unicode="x" horiz-adv-x="964" d="M57 934q0 14 27 14h90q37 0 70 -45l241 -356l273 360q23 29 31 35t22 6h31q37 0 2 -43l-318 -420l242 -354q35 -51 60.5 -68.5t60.5 -17.5q27 0 26 -10q0 -47 -69 -47q-37 0 -65.5 20.5t-75.5 87.5l-226 330l-301 -399q-23 -27 -43 -27h-29q-37 0 -8 37l340 448l-270 400 h-59q-52 0 -52 49z" />
<glyph unicode="y" horiz-adv-x="1079" d="M49 -395q0 16 6 21t17 1q72 -30 131 -30h4q41 0 72.5 9t73.5 52t75 121l102 239l-364 867h-57q-25 0 -38.5 15.5t-13.5 33.5q0 14 27 14h100q35 0 52 -33l333 -806l332 778h-55q-49 6 -49 47q0 14 20 14h133q35 0 35 -18q0 -25 -14 -58l-471 -1103q-57 -137 -127 -187.5 t-156 -50.5q-74 0 -121 21.5t-47 52.5z" />
<glyph unicode="z" horiz-adv-x="931" d="M100 25v20q0 27 13 41l589 797h-532q-68 0 -68 49q0 16 21 16h651q14 0 18.5 -3t4.5 -17v-13q0 -27 -11 -38l-598 -814h625h19.5t10.5 -2t6 -6t1 -12v-18q0 -16 -6 -20.5t-31 -4.5h-676q-25 0 -31 4.5t-6 20.5z" />
<glyph unicode="{" horiz-adv-x="602" d="M121 614v15q0 18 5 22t30 4q88 0 88 74v686q0 23 5 29t23 6h195q27 0 27 -18.5t-19.5 -34t-54.5 -15.5h-103v-651q0 -78 -81 -108q27 -4 42 -12.5t27 -31t12 -61.5v-391h-2v-305h158q23 0 28 -4t5 -23v-14q0 -18 -5 -22.5t-28 -4.5h-203q-18 0 -23 6.5t-5 28.5v350h2v377 q0 72 -88 72q-25 0 -30 4t-5 22z" />
<glyph unicode="|" horiz-adv-x="520" d="M221 -416v1932q0 23 5 28.5t26 5.5h14q20 0 24.5 -6t4.5 -28v-1598h-2v-334q0 -23 -4 -29t-23 -6h-16q-18 0 -23.5 6t-5.5 29z" />
<glyph unicode="}" horiz-adv-x="604" d="M96 -205q0 18 5 22.5t28 4.5h158v696q0 39 12 61.5t27.5 30.5t42.5 13q-82 31 -82 108v651h-103q-37 0 -56 15.5t-19 34t26 18.5h197q18 0 23 -6t5 -29v-686q0 -74 86 -74q25 0 31 -5t6 -21v-15q0 -16 -6 -21t-31 -5q-86 0 -86 -72v-727q0 -23 -5 -29t-23 -6h-203 q-23 0 -28 4t-5 23v14z" />
<glyph unicode="~" horiz-adv-x="1148" d="M186 543q0 78 62.5 127t154.5 49q78 0 185.5 -70.5t169.5 -70.5q59 0 101 36.5t42 96.5q0 20 23 20h24q18 0 19 -20q0 -86 -62.5 -140.5t-146.5 -54.5q-80 0 -187.5 70.5t-167 70.5t-104.5 -32.5t-45 -83.5q0 -35 -23 -35h-24q-12 0 -16.5 6t-4.5 31z" />
<glyph unicode="&#xa1;" horiz-adv-x="550" d="M225 913q0 49 51 50q55 0 56 -50q0 -47 -56 -47q-23 0 -37 13.5t-14 33.5zM238 -291v961q0 23 6 29t28 6h7q25 0 29.5 -6.5t4.5 -28.5v-961q0 -23 -6 -29t-28 -6h-7q-25 0 -29.5 6t-4.5 29z" />
<glyph unicode="&#xa2;" horiz-adv-x="1089" d="M145 709q0 205 96.5 335t278.5 156v215q0 20 7.5 27.5t27.5 7.5h8q18 0 24.5 -7t6.5 -28v-207h18q203 0 301 -98q20 -23 21 -47q0 -31 -27 -14q-137 92 -291 92q-195 0 -294 -117t-99 -313q0 -190 95.5 -306t306.5 -116q147 0 295 82q29 12 30 4q2 -4 2 -10 q0 -43 -41 -68q-111 -76 -297 -76h-20v-190q0 -18 -8.5 -24.5t-28.5 -6.5h-6q-18 0 -24.5 5t-6.5 26v196q-188 25 -281.5 154t-93.5 328z" />
<glyph unicode="&#xa3;" horiz-adv-x="1060" d="M156 545v14q0 18 4 22.5t26 4.5h152q-16 51 -58 137t-71 171t-29 179q0 197 113 297t291 100q125 0 232.5 -42t107.5 -82q0 -23 -5.5 -29t-19.5 0q-164 86 -309 86q-147 0 -240.5 -84t-93.5 -248q0 -121 75 -281.5t85 -203.5h164q20 0 25 -4t5 -23v-14q0 -18 -5 -22.5 t-25 -4.5h-152q4 -33 4 -49q0 -205 -158 -401h629q23 0 29 -5.5t6 -21.5v-12q0 -18 -6 -23.5t-29 -5.5h-698q-23 0 -29 5t-6 22v12q0 27 20 29q166 203 166 397q0 16 -4 53h-166q-23 0 -26.5 4t-3.5 23z" />
<glyph unicode="&#xa4;" horiz-adv-x="1253" d="M201 1137q2 6 24 -17l131 -133l27 25q109 86 242 86q156 0 264 -109l133 131q14 14 18 16.5t9 -1.5l-5 2q2 -2 -16 -23l-131 -131l21 -22q86 -104 86 -242q0 -158 -111 -268l131 -129q18 -18 16 -25q-4 -2 -20 18l-131 129l-23 -18q-104 -86 -241 -86q-158 0 -267 106 l-131 -131q-20 -20 -22 -18v2q0 6 18 23l129 129q-16 16 -22 26q-86 104 -86 238q0 154 106 266l-131 135q-20 16 -18 21zM301 715q0 -121 80 -209q98 -109 244 -109q125 0 215 82q106 96 106 238q0 123 -82 217q-94 106 -239 106q-125 0 -213 -79q-111 -100 -111 -246z" />
<glyph unicode="&#xa5;" horiz-adv-x="1318" d="M68 1434q0 16 20 16h125q29 0 47 -33l432 -811l443 783h-72q-49 6 -49 45q0 16 22 16h162q51 0 16 -59l-450 -803h297q20 0 25.5 -4t5.5 -23v-14q0 -18 -5.5 -22.5t-25.5 -4.5h-330v-143h330q20 0 25.5 -4t5.5 -23v-14q0 -18 -5.5 -22.5t-25.5 -4.5h-330v-274 q0 -23 -6 -29t-29 -6h-8q-25 0 -30 6t-5 29v274h-331q-20 0 -25.5 4t-5.5 23v14q0 18 5 22.5t26 4.5h331v143h-331q-20 0 -25.5 4t-5.5 23v14q0 18 5 22.5t26 4.5h301l-430 801h-72q-53 8 -53 45z" />
<glyph unicode="&#xa6;" horiz-adv-x="532" d="M229 -375v807q0 23 5.5 29t23.5 6h16q18 0 23.5 -6t5.5 -29v-807q0 -23 -5 -29t-24 -6h-16q-18 0 -23.5 6t-5.5 29zM229 614v801q0 23 5.5 29t23.5 6h16q18 0 23.5 -6t5.5 -29v-801q0 -23 -5 -28.5t-24 -5.5h-16q-18 0 -23.5 5.5t-5.5 28.5z" />
<glyph unicode="&#xa7;" horiz-adv-x="1019" d="M162 109q0 35 31 16q98 -76 296 -76q129 0 202 62.5t73 142.5q0 78 -62.5 127t-150.5 73.5t-176 51t-150.5 82t-62.5 143.5q0 205 256 244q-231 72 -232 260q0 111 87 190.5t251 79.5q123 0 213 -28q109 -35 109 -97q0 -35 -31 -16q-94 76 -287 76q-127 0 -196.5 -62.5 t-69.5 -142.5q0 -78 62.5 -127t150.5 -73.5t176 -51.5t150.5 -82t62.5 -143q0 -205 -256 -244q106 -35 169 -93.5t63 -166.5q0 -111 -89 -190.5t-257 -79.5q-131 0 -224 28q-109 35 -108 97zM238 731q0 -57 40.5 -95t122.5 -67q45 -4 86 -4q150 0 227 55.5t77 137.5 q0 106 -164 160q-37 6 -88 6q-147 0 -224 -55.5t-77 -137.5z" />
<glyph unicode="&#xa8;" horiz-adv-x="1447" d="M250 1266q0 23 14.5 36t34.5 13q55 0 55 -49q0 -47 -55 -47q-20 0 -34.5 13.5t-14.5 33.5zM567 1266q0 49 51 49q55 0 56 -49q0 -20 -15.5 -33.5t-40.5 -13.5q-23 0 -37 13.5t-14 33.5z" />
<glyph unicode="&#xa9;" horiz-adv-x="1662" d="M150 719q0 303 184 507t495 204q313 0 497.5 -204t184.5 -507t-184.5 -507t-497.5 -204q-311 0 -495 204t-184 507zM213 719q0 -274 166 -463.5t450 -189.5q287 0 452 188t165 464.5t-165 465t-452 188.5q-285 0 -450.5 -188.5t-165.5 -464.5zM481 705q0 227 94.5 335.5 t251.5 108.5q106 0 171 -33t65 -69q0 -23 -4 -25t-17 8q-84 61 -211 62q-133 0 -209.5 -93.5t-76.5 -291.5q0 -377 289 -377q121 0 202 57q25 14 25 -12q0 -37 -61.5 -70t-172.5 -33q-346 1 -346 433z" />
<glyph unicode="&#xaa;" horiz-adv-x="786" d="M143 1001.5q0 100.5 51.5 147.5t165.5 47q57 0 160 -12q-6 215 -119 215h-139q-37 0 -56.5 12t-19.5 28.5t21 16.5h194q100 0 142.5 -69.5t42.5 -206.5v-279q0 -51 28 -51q25 0 25 -10q0 -45 -53 -45q-51 0 -64 55q-68 -57 -200 -57q-86 0 -132.5 54t-46.5 154.5z M209 999q0 -152 121 -151q111 0 190 59v226q-57 10 -155 10q-80 0 -118 -34t-38 -110z" />
<glyph unicode="&#xab;" horiz-adv-x="892" d="M117 473l284 451q14 23 31 22h33q29 0 16 -20l-286 -453l286 -453q12 -20 -16 -20h-33q-17 0 -31 23zM410 473l284 451q14 23 31 22h31q31 0 18 -20l-287 -453l287 -453q12 -20 -18 -20h-31q-17 0 -31 23z" />
<glyph unicode="&#xac;" horiz-adv-x="1318" d="M141 837.5q0 18.5 27 18.5h924q23 0 28.5 -5t5.5 -22v-434q0 -20 -6 -26.5t-24 -6.5h-13q-18 0 -24 6.5t-6 26.5v393h-838q-35 0 -54.5 15.5t-19.5 34z" />
<glyph unicode="&#xad;" horiz-adv-x="806" d="M135 535v12q0 18 6 22t29 4h430q23 0 29 -4t6 -22v-12q0 -18 -6 -22.5t-29 -4.5h-430q-16 0 -22.5 1t-9.5 6t-3 20z" />
<glyph unicode="&#xae;" horiz-adv-x="1662" d="M150 717q0 303 184 506.5t495 203.5q313 0 497.5 -203.5t184.5 -506.5t-184.5 -507t-497.5 -204q-311 0 -495 204t-184 507zM213 717q0 -274 166 -464t450 -190q287 0 452 188.5t165 465t-165 465t-452 188.5q-285 0 -450.5 -188.5t-165.5 -464.5zM547 1126q0 12 14 13 h287q104 0 185 -72t81 -207q0 -109 -57.5 -170t-147.5 -80l103 -213q33 -70 86 -69q23 0 22 -6v-16.5t-3 -10.5t-12 -9t-26 -1q-74 0 -116 82l-115 237h-170v-293q0 -16 -5 -20t-22 -4h-10q-27 0 -27 24v774h-18q-49 4 -49 41zM678 655h121q117 0 183.5 52.5t66.5 154.5 q0 109 -66.5 164t-144.5 55h-160v-426z" />
<glyph unicode="&#xaf;" horiz-adv-x="866" d="M125 1305v6q0 16 6 21t27 5h381q20 0 26 -5t6 -21v-6q0 -16 -6 -21.5t-26 -5.5h-381q-20 0 -26.5 4t-6.5 23z" />
<glyph unicode="&#xb0;" horiz-adv-x="864" d="M127 1452q0 125 82 204t221 79q141 0 223 -79t82 -204q0 -123 -85 -202t-220 -79q-133 0 -218 79t-85 202zM188 1452q0 -104 71 -165.5t171 -61.5q104 0 175 61.5t71 165.5q0 94 -65.5 161.5t-180.5 67.5q-111 0 -176.5 -67.5t-65.5 -161.5z" />
<glyph unicode="&#xb1;" horiz-adv-x="1148" d="M174 109v14q0 18 5 22.5t28 4.5h735q23 0 28 -4.5t5 -22.5v-14q0 -18 -5 -22.5t-28 -4.5h-735q-23 0 -28 4t-5 23zM174 723v14q0 18 5 22.5t28 4.5h321v377q0 23 23 22h27q14 0 18 -4t4 -18v-377h342q23 0 28 -4t5 -23v-14q0 -18 -5 -22.5t-28 -4.5h-342v-362 q0 -27 -27 -27h-18q-27 0 -27 27v362h-321q-23 0 -28 4.5t-5 22.5z" />
<glyph unicode="&#xb2;" horiz-adv-x="1024" d="M92 653q0 119 42 209t103.5 139.5t135 98.5t135 86t103.5 101.5t42 148.5q0 213 -235 213q-70 0 -127.5 -15.5t-83 -29t-68.5 -43.5q-25 -18 -24 16q0 51 84 96t225 45q145 0 226 -73.5t81 -208.5q0 -82 -30.5 -147.5t-80 -108.5t-108.5 -80t-118.5 -74t-108.5 -81 t-81 -110.5t-32 -152.5h547q29 0 29 -27v-14q0 -16 -5.5 -21.5t-23.5 -5.5h-594q-33 0 -33 39z" />
<glyph unicode="&#xb3;" horiz-adv-x="1024" d="M57 717q0 8 1 11t3 5t7.5 1t15.5 -5q160 -61 317 -61q160 0 239 68.5t79 185.5q0 248 -303 247h-62q-18 0 -23 5.5t-5 21.5v14q0 16 5 21.5t23 5.5h60q106 0 167.5 55.5t61.5 159.5t-64.5 151.5t-197.5 47.5q-104 0 -236 -52q-29 -12 -28 11q0 31 28 51q78 57 250 57 q328 0 328 -262q0 -199 -178 -248q252 -37 252 -288q0 -143 -94.5 -231.5t-294.5 -88.5q-174 0 -295 49q-55 18 -56 68z" />
<glyph unicode="&#xb4;" horiz-adv-x="1705" d="M313 1241l183 225q12 18 34 19h35q35 0 8 -27l-190 -223q-12 -14 -29 -14h-35q-24 0 -6 20z" />
<glyph unicode="&#xb5;" horiz-adv-x="1181" d="M106 934q0 14 27 14h94q59 0 60 -57v-555q0 -281 262 -281q139 0 218 77t99 204v549h-55q-51 0 -51 49q0 14 26 14h95q59 0 59 -57v-760q0 -47 12.5 -64.5t46.5 -17.5q31 0 37 -2t6 -12q0 -43 -75 -43q-100 0 -101 112v70q-88 -184 -327 -184q-172 0 -252 96v-582 q0 -20 -6.5 -25t-26.5 -5h-10q-20 0 -26.5 5t-6.5 25v1381h-53q-51 0 -52 49z" />
<glyph unicode="&#xb6;" horiz-adv-x="987" d="M100 1151q0 143 80 221t271 78h258q16 0 22 -6.5t6 -22.5v-1392q0 -16 -6 -22.5t-22 -6.5h-21q-27 0 -26 29v1353h-158v-1353q0 -16 -6 -22.5t-23 -6.5h-20q-27 0 -27 29v823q-178 6 -253 83t-75 216z" />
<glyph unicode="&#xb7;" horiz-adv-x="450" d="M172 573q0 49 51 50q55 0 56 -50q0 -47 -56 -47q-23 0 -37 13.5t-14 33.5z" />
<glyph unicode="&#xb8;" horiz-adv-x="1705" d="M276 -383q0 14 6.5 15t26.5 -5q86 -31 158 -30q162 0 162 102q0 49 -33 76.5t-72 37t-71.5 43.5t-32.5 93v57q0 16 16 17h27q18 0 18 -17v-51q0 -45 33 -72.5t73 -38t72.5 -46.5t32.5 -99q0 -78 -62.5 -120t-158.5 -42q-100 0 -172 31q-23 10 -23 29v20z" />
<glyph unicode="&#xb9;" horiz-adv-x="1024" d="M61 1688q0 14 25 14h182q18 0 24.5 -6.5t6.5 -24.5v-1028q0 -16 -6 -22.5t-25 -6.5h-20q-16 0 -21.5 6.5t-5.5 22.5v991h-88q-35 0 -53.5 16.5t-18.5 37.5z" />
<glyph unicode="&#xba;" horiz-adv-x="835" d="M141 1116q0 158 71 248t206 90t205.5 -90t70.5 -248q0 -156 -69.5 -245t-206.5 -89t-207 89.5t-70 244.5zM203 1118.5q0 -280.5 215 -280.5q109 0 162 79.5t53 200.5q0 123 -53.5 202t-161.5 79q-215 0 -215 -280.5z" />
<glyph unicode="&#xbb;" horiz-adv-x="892" d="M119 20l284 453l-284 453q-14 20 16 20h31q18 0 33 -22l284 -451l-284 -450q-14 -23 -33 -23h-31q-31 0 -16 20zM412 20l284 453l-284 453q-14 20 16 20h31q18 0 33 -22l284 -451l-284 -450q-14 -23 -33 -23h-31q-31 0 -16 20z" />
<glyph unicode="&#xbc;" horiz-adv-x="1894" d="M61 1421q0 14 25 15h182q18 0 24.5 -6.5t6.5 -24.5v-1028q0 -16 -6 -22.5t-25 -6.5h-20q-16 0 -21.5 6t-5.5 23v991h-88q-35 0 -53.5 16.5t-18.5 36.5zM398.5 8q-3.5 8 7.5 29l638 1382q14 31 39 31h29q18 0 21 -8.5t-5 -26.5l-641 -1382q-14 -33 -43 -33h-22 q-20 0 -23.5 8zM1116 276l371 750h-35q-18 0 -37.5 13.5t-19.5 35.5q0 16 22 17h99q78 0 38 -80l-342 -699h412v207q0 27 6 36t27 9h8q23 0 29 -8t6 -37v-205h104q18 0 22.5 -5t4.5 -21v-17q0 -16 -4 -20t-23 -4h-104v-213q0 -23 -8.5 -29t-28.5 -6h-6q-23 0 -28 6t-5 29 v213h-494q-29 0 -14 28z" />
<glyph unicode="&#xbd;" horiz-adv-x="1898" d="M61 1421q0 14 25 15h182q18 0 24.5 -6.5t6.5 -24.5v-1028q0 -16 -6 -22.5t-25 -6.5h-20q-16 0 -21.5 6t-5.5 23v991h-88q-35 0 -53.5 16.5t-18.5 36.5zM398.5 8q-3.5 8 7.5 29l638 1382q14 31 39 31h29q18 0 21 -8.5t-5 -26.5l-641 -1382q-14 -33 -43 -33h-22 q-20 0 -23.5 8zM1147 39q0 119 42 209t103.5 139t135 98.5t135 86t103.5 101t42 148.5q0 213 -235 213q-70 0 -127.5 -15t-83 -28.5t-68.5 -44.5q-25 -18 -25 17q0 51 84 96t226 45q145 0 226 -74t81 -209q0 -82 -31 -147.5t-80 -108.5t-108.5 -79.5t-118.5 -73.5 t-108.5 -81t-81 -110.5t-31.5 -152.5h547q29 0 28 -27v-14q0 -16 -5 -21.5t-23 -5.5h-594q-33 0 -33 39z" />
<glyph unicode="&#xbe;" horiz-adv-x="2312" d="M57 451q0 8 1 11t3 5t7.5 1t15.5 -5q160 -61 317 -62q160 0 239 68.5t79 185.5q0 248 -303 248h-62q-18 0 -23 5t-5 22v14q0 16 5 21.5t23 5.5h60q106 0 167.5 55t61.5 159.5t-64.5 151.5t-197.5 47q-104 0 -236 -51q-29 -12 -28 10q0 31 28 52q78 57 250 57 q328 0 328 -262q0 -199 -178 -248q252 -37 252 -289q0 -143 -94.5 -231t-294.5 -88q-174 0 -295 49q-55 18 -56 68zM818.5 8q-3.5 8 6.5 29l639 1382q14 31 39 31h29q18 0 21 -8.5t-5 -26.5l-641 -1382q-14 -33 -43 -33h-22q-20 0 -23.5 8zM1536 276l371 750h-35 q-18 0 -37.5 13.5t-19.5 35.5q0 16 22 17h98q78 0 39 -80l-342 -699h412v207q0 27 6 36t27 9h8q23 0 29 -8t6 -37v-205h104q18 0 22.5 -5t4.5 -21v-17q0 -16 -4 -20t-23 -4h-104v-213q0 -23 -8.5 -29t-28.5 -6h-6q-23 0 -28 6t-5 29v213h-494q-29 0 -14 28z" />
<glyph unicode="&#xbf;" horiz-adv-x="960" d="M106 -70q0 98 40 173t96.5 124t114 99.5t97.5 126t40 176.5v49q0 20 18 20h43q16 0 16 -20v-45q0 -111 -39.5 -195t-97 -137t-114 -102t-96.5 -116t-40 -151q0 -137 80 -215.5t240 -78.5q186 0 336 92q16 12 23 8t7 -31q0 -45 -116.5 -91t-255.5 -46q-195 0 -293.5 95 t-98.5 265zM483 913q0 49 52 50q55 0 55 -50q0 -47 -55 -47q-23 0 -37.5 13.5t-14.5 33.5z" />
<glyph unicode="&#xc0;" d="M100 27l508 1362h-65q-54 4 -54 45q0 16 27 16h176q23 0 33 -23l522 -1400q10 -27 -18 -27h-31q-23 0 -33 25l-168 452h-651l-166 -452q-10 -25 -37 -25h-24q-29 0 -19 27zM371 545h602l-299 815zM462 1772.5q3 7.5 17 7.5h35q25 -1 37 -19l203 -213q8 -8 5 -14t-11 -6 h-39q-16 0 -29 16l-213 211q-8 10 -5 17.5z" />
<glyph unicode="&#xc1;" d="M100 27l508 1362h-65q-54 4 -54 45q0 16 27 16h176q23 0 33 -23l522 -1400q10 -27 -18 -27h-31q-23 0 -33 25l-168 452h-651l-166 -452q-10 -25 -37 -25h-24q-29 0 -19 27zM371 545h602l-299 815zM584 1565l182 225q12 18 35 18h35q35 0 8 -26l-191 -223q-12 -14 -28 -15 h-35q-24 1 -6 21z" />
<glyph unicode="&#xc2;" d="M100 27l508 1362h-65q-54 4 -54 45q0 16 27 16h176q23 0 33 -23l522 -1400q10 -27 -18 -27h-31q-23 0 -33 25l-168 452h-651l-166 -452q-10 -25 -37 -25h-24q-29 0 -19 27zM371 545h602l-299 815zM406 1569l225 196q12 8 24 9h33q12 0 25 -9l225 -196q12 -10 7 -18.5 t-17 -8.5h-27q-20 0 -39 19l-190 159l-191 -159q-23 -18 -41 -19h-22q-35 0 -12 27z" />
<glyph unicode="&#xc3;" d="M100 27l508 1362h-65q-54 4 -54 45q0 16 27 16h176q23 0 33 -23l522 -1400q10 -27 -18 -27h-31q-23 0 -33 25l-168 452h-651l-166 -452q-10 -25 -37 -25h-24q-29 0 -19 27zM371 545h602l-299 815zM424 1589q0 49 34 89t93 40q66 0 129 -48t106 -48q29 0 50.5 19.5 t23.5 54.5q4 18 25 18h16q20 0 21 -20q0 -59 -38 -95t-91 -36q-66 0 -128.5 48t-105.5 48q-70 0 -74 -74q0 -16 -26 -16h-15q-20 0 -20 20z" />
<glyph unicode="&#xc4;" d="M100 27l508 1362h-65q-54 4 -54 45q0 16 27 16h176q23 0 33 -23l522 -1400q10 -27 -18 -27h-31q-23 0 -33 25l-168 452h-651l-166 -452q-10 -25 -37 -25h-24q-29 0 -19 27zM371 545h602l-299 815zM467 1589q0 23 14.5 36t34.5 13q55 0 55 -49q0 -47 -55 -47 q-20 0 -34.5 13.5t-14.5 33.5zM784 1589q0 49 52 49q55 0 55 -49q0 -20 -15.5 -33.5t-39.5 -13.5q-23 0 -37.5 13.5t-14.5 33.5z" />
<glyph unicode="&#xc5;" d="M100 27l508 1362h-65q-54 4 -54 45q0 16 27 16h176q23 0 33 -23l522 -1400q10 -27 -18 -27h-31q-23 0 -33 25l-168 452h-651l-166 -452q-10 -25 -37 -25h-24q-29 0 -19 27zM371 545h602l-299 815zM477 1722q0 84 55.5 139.5t141.5 55.5t142 -55.5t56 -139.5 q0 -82 -56 -137t-142 -55t-141.5 55t-55.5 137zM543 1722q0 -63 39 -98t92 -35q55 0 94 35t39 98q0 57 -37 96.5t-96.5 39.5t-95 -39.5t-35.5 -96.5z" />
<glyph unicode="&#xc6;" horiz-adv-x="1683" d="M33 29l669 1360h-65q-59 6 -59 45q0 16 28 16h207l-2 -2l4 2h731q27 0 27 -14q0 -53 -76 -54h-645v-594h530q29 0 29 -14q0 -53 -76 -53h-483v-653h674q23 0 31 -5.5t8 -21.5v-12q0 -18 -7.5 -23.5t-31.5 -5.5h-711q-25 0 -32 5t-7 24v448h-440l-223 -454 q-10 -23 -27 -23h-35q-35 0 -18 29zM369 545h407v829z" />
<glyph unicode="&#xc7;" horiz-adv-x="1357" d="M145 711q0 365 177.5 572.5t527.5 207.5q246 0 367 -96q37 -29 36 -62q0 -16 -8 -17t-37 15q-170 92 -356 92q-319 0 -475 -192.5t-156 -521.5q0 -315 153.5 -491.5t477.5 -176.5q90 0 164 12.5t114.5 25.5t112.5 44q27 12 27 -14q0 -23 -21 -41q-43 -37 -146.5 -65 t-240.5 -30v-30q0 -45 33 -73t73 -38t72.5 -46t32.5 -99q0 -78 -62.5 -120t-158.5 -42q-100 0 -172 31q-23 10 -23 28v21q0 14 6.5 15t26.5 -5q86 -31 158 -31q162 0 162 103q0 49 -33 76.5t-72 37t-71.5 43.5t-32.5 93v38q-328 12 -492 203t-164 533z" />
<glyph unicode="&#xc8;" horiz-adv-x="1081" d="M125 1434q0 16 27 16h817q27 0 26 -14q0 -53 -75 -54h-598v-594h526q27 0 26 -14q0 -53 -73 -53h-479v-653h626q23 0 29 -5.5t6 -21.5v-12q0 -18 -6 -23.5t-29 -5.5h-667q-20 0 -27.5 5t-7.5 24v1360h-68q-53 6 -53 45zM373 1772.5q4 7.5 18 7.5h35q25 -1 37 -19 l203 -213q8 -8 5 -14t-12 -6h-38q-16 0 -29 16l-213 211q-10 10 -6 17.5z" />
<glyph unicode="&#xc9;" horiz-adv-x="1079" d="M123 1434q0 16 27 16h817q27 0 26 -14q0 -53 -75 -54h-599v-594h527q27 0 26 -14q0 -53 -73 -53h-480v-653h627q23 0 29 -5.5t6 -21.5v-12q0 -18 -6 -23.5t-29 -5.5h-667q-20 0 -27.5 5t-7.5 24v1360h-66q-55 6 -55 45zM494 1565l182 225q12 18 35 18h34q35 0 9 -26 l-191 -223q-12 -14 -28 -15h-35q-24 1 -6 21z" />
<glyph unicode="&#xca;" horiz-adv-x="1079" d="M123 1434q0 16 27 16h817q27 0 26 -14q0 -53 -75 -54h-599v-594h527q27 0 26 -14q0 -53 -73 -53h-480v-653h627q23 0 29 -5.5t6 -21.5v-12q0 -18 -6 -23.5t-29 -5.5h-667q-20 0 -27.5 5t-7.5 24v1360h-66q-55 6 -55 45zM317 1569l226 196q12 8 24 9h33q12 0 25 -9 l225 -196q12 -10 7 -18.5t-17 -8.5h-27q-20 0 -39 19l-190 159l-191 -159q-23 -18 -41 -19h-22q-35 0 -13 27z" />
<glyph unicode="&#xcb;" horiz-adv-x="1081" d="M125 1434q0 16 27 16h817q27 0 26 -14q0 -53 -75 -54h-598v-594h526q27 0 26 -14q0 -53 -73 -53h-479v-653h626q23 0 29 -5.5t6 -21.5v-12q0 -18 -6 -23.5t-29 -5.5h-667q-20 0 -27.5 5t-7.5 24v1360h-68q-53 6 -53 45zM379 1589q0 23 14.5 36t34.5 13q55 0 55 -49 q0 -47 -55 -47q-20 0 -34.5 13.5t-14.5 33.5zM696 1589q0 49 52 49q55 0 55 -49q0 -20 -15.5 -33.5t-39.5 -13.5q-23 0 -37.5 13.5t-14.5 33.5z" />
<glyph unicode="&#xcc;" horiz-adv-x="557" d="M69 1772.5q3 7.5 17 7.5h35q25 -1 37 -19l202 -213q8 -8 5 -14t-11 -6h-39q-16 0 -28 16l-213 211q-8 10 -5 17.5zM123 1434q0 16 27 16h141q18 0 23 -6t5 -23v-1392q0 -16 -5 -22.5t-21 -6.5h-21q-16 0 -22 6t-6 23v1360h-66q-55 6 -55 45z" />
<glyph unicode="&#xcd;" horiz-adv-x="557" d="M123 1434q0 16 27 16h141q18 0 23 -6t5 -23v-1392q0 -16 -5 -22.5t-21 -6.5h-21q-16 0 -22 6t-6 23v1360h-66q-55 6 -55 45zM190 1565l183 225q12 18 35 18h34q35 0 9 -26l-191 -223q-12 -14 -29 -15h-34q-25 1 -7 21z" />
<glyph unicode="&#xce;" horiz-adv-x="557" d="M14 1569l226 196q12 8 24 9h33q12 0 25 -9l225 -196q12 -10 7 -18.5t-17 -8.5h-27q-20 0 -39 19l-190 159l-191 -159q-23 -18 -41 -19h-22q-35 0 -13 27zM123 1434q0 16 27 16h141q18 0 23 -6t5 -23v-1392q0 -16 -5 -22.5t-21 -6.5h-21q-16 0 -22 6t-6 23v1360h-66 q-55 6 -55 45z" />
<glyph unicode="&#xcf;" horiz-adv-x="557" d="M74 1589q0 23 14 36t35 13q55 0 55 -49q0 -47 -55 -47q-20 0 -34.5 13.5t-14.5 33.5zM123 1434q0 16 27 16h141q18 0 23 -6t5 -23v-1392q0 -16 -5 -22.5t-21 -6.5h-21q-16 0 -22 6t-6 23v1360h-66q-55 6 -55 45zM391 1589q0 49 51 49q55 0 56 -49q0 -20 -15.5 -33.5 t-40.5 -13.5q-23 0 -37 13.5t-14 33.5z" />
<glyph unicode="&#xd0;" horiz-adv-x="1312" d="M80 723v14q0 18 5 22.5t28 4.5h145v625h-68q-55 6 -55 45q0 16 27 16h383q305 0 461.5 -193.5t156.5 -529.5t-155.5 -531.5t-462.5 -195.5h-252q-23 0 -29 5t-6 24v667h-145q-23 0 -28 4.5t-5 22.5zM334 68h207q279 0 411.5 183t132.5 478q0 299 -131.5 476t-412.5 177 h-207v-618h160q20 0 25 -4t5 -23v-14q0 -18 -5 -22.5t-25 -4.5h-160v-628z" />
<glyph unicode="&#xd1;" horiz-adv-x="1417" d="M123 1434q0 16 27 16h153q33 0 59 -47l742 -1276v1294q0 16 5 22.5t24 6.5h18q16 0 22.5 -6t6.5 -23v-1392q0 -29 -27 -29h-37q-20 0 -37 20l-760 1307v-1298q0 -16 -5 -22.5t-21 -6.5h-21q-16 0 -22 6t-6 23v1360h-68q-53 6 -53 45zM463 1589q0 49 33.5 89t93.5 40 q66 0 129 -48t106 -48q29 0 50.5 19.5t23.5 54.5q2 18 25 18h16q20 0 21 -20q0 -59 -38 -95t-92 -36q-66 0 -128 48t-105 48q-70 0 -74 -74q0 -16 -26 -16h-15q-20 0 -20 20z" />
<glyph unicode="&#xd2;" horiz-adv-x="1634" d="M143 723q0 221 72 390t226.5 272.5t375.5 103.5q332 0 503 -213t171 -553q0 -221 -68.5 -385t-223.5 -264.5t-382 -100.5q-334 0 -504 206t-170 544zM221 725q0 -139 33 -258t100.5 -216t186 -153.5t276.5 -56.5t276.5 56.5t186.5 153.5t100.5 216t32.5 258 q0 141 -32.5 262t-101.5 220.5t-186.5 156.5t-275.5 57t-275.5 -57t-186 -156.5t-101.5 -220.5t-33 -262zM605 1772.5q3 7.5 18 7.5h34q25 -1 37 -19l203 -213q8 -8 5 -14t-11 -6h-39q-16 0 -29 16l-213 211q-8 10 -5 17.5z" />
<glyph unicode="&#xd3;" horiz-adv-x="1634" d="M143 723q0 221 72 390t226.5 272.5t375.5 103.5q332 0 503 -213t171 -553q0 -221 -68.5 -385t-223.5 -264.5t-382 -100.5q-334 0 -504 206t-170 544zM221 725q0 -139 33 -258t100.5 -216t186 -153.5t276.5 -56.5t276.5 56.5t186.5 153.5t100.5 216t32.5 258 q0 141 -32.5 262t-101.5 220.5t-186.5 156.5t-275.5 57t-275.5 -57t-186 -156.5t-101.5 -220.5t-33 -262zM727 1565l182 225q12 18 35 18h35q35 0 8 -26l-190 -223q-12 -14 -29 -15h-35q-24 1 -6 21z" />
<glyph unicode="&#xd4;" horiz-adv-x="1634" d="M143 723q0 221 72 390t226.5 272.5t375.5 103.5q332 0 503 -213t171 -553q0 -221 -68.5 -385t-223.5 -264.5t-382 -100.5q-334 0 -504 206t-170 544zM221 725q0 -139 33 -258t100.5 -216t186 -153.5t276.5 -56.5t276.5 56.5t186.5 153.5t100.5 216t32.5 258 q0 141 -32.5 262t-101.5 220.5t-186.5 156.5t-275.5 57t-275.5 -57t-186 -156.5t-101.5 -220.5t-33 -262zM551 1569l225 196q12 8 25 9h33q12 0 24 -9l225 -196q12 -10 7 -18.5t-17 -8.5h-26q-20 0 -39 19l-191 159l-190 -159q-23 -18 -41 -19h-23q-35 0 -12 27z" />
<glyph unicode="&#xd5;" horiz-adv-x="1634" d="M143 723q0 221 72 390t226.5 272.5t375.5 103.5q332 0 503 -213t171 -553q0 -221 -68.5 -385t-223.5 -264.5t-382 -100.5q-334 0 -504 206t-170 544zM221 725q0 -139 33 -258t100.5 -216t186 -153.5t276.5 -56.5t276.5 56.5t186.5 153.5t100.5 216t32.5 258 q0 141 -32.5 262t-101.5 220.5t-186.5 156.5t-275.5 57t-275.5 -57t-186 -156.5t-101.5 -220.5t-33 -262zM567 1589q0 49 34 89t93 40q66 0 129.5 -48t106.5 -48q29 0 50 19.5t24 54.5q4 18 24 18h16q20 0 21 -20q0 -59 -38 -95t-91 -36q-66 0 -128.5 48t-105.5 48 q-70 0 -73 -74q0 -16 -27 -16h-14q-21 0 -21 20z" />
<glyph unicode="&#xd6;" horiz-adv-x="1634" d="M143 723q0 221 72 390t226.5 272.5t375.5 103.5q332 0 503 -213t171 -553q0 -221 -68.5 -385t-223.5 -264.5t-382 -100.5q-334 0 -504 206t-170 544zM221 725q0 -139 33 -258t100.5 -216t186 -153.5t276.5 -56.5t276.5 56.5t186.5 153.5t100.5 216t32.5 258 q0 141 -32.5 262t-101.5 220.5t-186.5 156.5t-275.5 57t-275.5 -57t-186 -156.5t-101.5 -220.5t-33 -262zM610 1589q0 23 14.5 36t34.5 13q55 0 56 -49q0 -47 -56 -47q-20 0 -34.5 13.5t-14.5 33.5zM928 1589q0 49 51 49q55 0 55 -49q0 -20 -15 -33.5t-40 -13.5 q-23 0 -37 13.5t-14 33.5z" />
<glyph unicode="&#xd7;" horiz-adv-x="1075" d="M198 230.5q3 9.5 25 33.5l271 271l-265 266q-25 25 -27.5 33t9.5 22l8 8q12 12 22.5 9t34.5 -27l256 -256l-2 -2l9 -6l155 155v-2l111 111q25 25 34 28t23 -10l8 -8q12 -14 9.5 -22.5t-27.5 -32.5l-266 -266l272 -271q23 -23 26 -34t-10 -21l-8 -8q-14 -12 -22 -9t-33 27 l-270 270l-271 -270q-23 -25 -32 -28t-23 10l-8 8q-12 12 -9 21.5z" />
<glyph unicode="&#xd8;" horiz-adv-x="1634" d="M143 723q0 221 72 390t226.5 272.5t375.5 103.5q209 0 365 -94l43 71q27 41 36 51.5t25 10.5h35q14 0 17 -10.5t-5 -20.5l-90 -147q248 -203 248 -627q0 -221 -68.5 -385t-223.5 -264.5t-382 -100.5q-211 0 -360 86l-60 -98q-16 -29 -41 -29h-39q-29 0 -8 31l84 137 q-250 193 -250 623zM221 725q0 -377 211 -559l713 1169q-139 86 -328 86q-158 0 -275.5 -57t-186 -156.5t-101.5 -220.5t-33 -262zM496 121q131 -80 321 -80q158 0 276.5 56.5t186.5 153.5t100.5 216t32.5 258q0 377 -207 563z" />
<glyph unicode="&#xd9;" horiz-adv-x="1417" d="M119 1434q0 16 26 16h138q23 0 27.5 -6t4.5 -29v-946q0 -193 97.5 -311.5t296.5 -118.5q215 0 314 117.5t99 312.5v920h-67q-55 6 -56 45q0 16 27 16h137q25 0 30 -6t5 -29v-948q0 -229 -122 -361.5t-367 -132.5q-233 0 -351 133.5t-118 360.5v922h-66q-55 6 -55 45z M500 1772.5q4 7.5 18 7.5h35q25 -1 37 -19l203 -213q8 -8 5 -14t-12 -6h-38q-16 0 -29 16l-213 211q-10 10 -6 17.5z" />
<glyph unicode="&#xda;" horiz-adv-x="1419" d="M119 1434q0 16 26 16h138q23 0 27.5 -6t4.5 -29v-946q0 -193 97.5 -311.5t296.5 -118.5q215 0 314 117.5t99 312.5v920h-67q-55 6 -56 45q0 16 27 16h137q25 0 30 -6t5 -29v-948q0 -229 -122 -361.5t-367 -132.5q-233 0 -351 133.5t-118 360.5v922h-66q-55 6 -55 45z M623 1565l182 225q12 18 35 18h34q35 0 9 -26l-191 -223q-12 -14 -28 -15h-35q-24 1 -6 21z" />
<glyph unicode="&#xdb;" horiz-adv-x="1417" d="M117 1434q0 16 26 16h138q23 0 27.5 -6t4.5 -29v-946q0 -193 97.5 -311.5t296.5 -118.5q215 0 314 117.5t99 312.5v920h-67q-55 6 -56 45q0 16 27 16h137q25 0 30 -6t5 -29v-948q0 -229 -122 -361.5t-367 -132.5q-233 0 -351 133.5t-118 360.5v922h-66q-55 6 -55 45z M442 1569l226 196q12 8 24 9h33q12 0 25 -9l225 -196q12 -10 7 -18.5t-17 -8.5h-27q-20 0 -39 19l-190 159l-191 -159q-23 -18 -41 -19h-22q-35 0 -13 27z" />
<glyph unicode="&#xdc;" horiz-adv-x="1419" d="M119 1434q0 16 26 16h138q23 0 27.5 -6t4.5 -29v-946q0 -193 97.5 -311.5t296.5 -118.5q215 0 314 117.5t99 312.5v920h-67q-55 6 -56 45q0 16 27 16h137q25 0 30 -6t5 -29v-948q0 -229 -122 -361.5t-367 -132.5q-233 0 -351 133.5t-118 360.5v922h-66q-55 6 -55 45z M506 1589q0 23 14.5 36t34.5 13q55 0 55 -49q0 -47 -55 -47q-20 0 -34.5 13.5t-14.5 33.5zM823 1589q0 49 51 49q55 0 56 -49q0 -20 -15.5 -33.5t-40.5 -13.5q-23 0 -37 13.5t-14 33.5z" />
<glyph unicode="&#xdd;" horiz-adv-x="1275" d="M23 1434q0 16 18 16h125q31 0 49 -33l432 -811l443 783h-72q-49 6 -49 45q0 16 22 16h162q51 0 16 -59l-485 -867v-489q0 -23 -6 -29t-29 -6h-8q-23 0 -28 6t-5 29v495l-463 859h-69q-53 8 -53 45zM561 1561l182 225q12 18 35 18h35q35 0 8 -26l-190 -224 q-12 -14 -29 -14h-35q-24 1 -6 21z" />
<glyph unicode="&#xde;" horiz-adv-x="1079" d="M229 -25h2v1440q0 23 5.5 29t23.5 6h16q18 0 23.5 -6t5.5 -29v-463h176q88 0 172 -28.5t155 -85t114 -149.5t43 -212q0 -227 -149.5 -349t-354.5 -122h-156v-47h-2v-334q0 -23 -5 -29t-24 -6h-16q-18 0 -23.5 6.5t-5.5 28.5v350zM305 74h148q168 0 301 105.5t133 303.5 q0 193 -126 297.5t-290 104.5h-166v-811z" />
<glyph unicode="&#xdf;" horiz-adv-x="1185" d="M78 1434q0 16 26 16h453q211 0 306 -98.5t95 -259.5q0 -264 -221 -330q324 -47 324 -369q0 -393 -463 -393h-223q-20 0 -25.5 4t-5.5 23v14q0 18 5 22.5t26 4.5h215q393 0 393 325q0 305 -344 328h-195q-23 0 -26.5 4t-3.5 23v16q0 16 4 20t26 4h138q145 0 222 80t77 222 q0 293 -334 292h-273v-1763q0 -16 -5 -22.5t-21 -6.5h-21q-16 0 -22 6.5t-6 22.5v1770h-66q-55 6 -55 45z" />
<glyph unicode="&#xe0;" horiz-adv-x="1071" d="M109 248q0 131 87 183t265 52q215 0 338 -18v98q0 182 -68.5 251t-247.5 69h-247q-66 0 -66 51q0 10 4 12t23 2h286q209 0 299 -83t90 -281v-453q0 -47 12.5 -64.5t49.5 -17.5q31 0 36 -2t5 -12q0 -43 -74 -43q-98 0 -102 104q-150 -109 -391 -108q-299 0 -299 260z M182 246q0 -106 60.5 -150.5t177.5 -44.5q102 0 186 22.5t116 41t77 51.5v235q-102 18 -328 19q-147 0 -218 -35t-71 -139zM307 1449q4 7 19 7h34q25 0 37 -18l203 -213q8 -8 5 -14.5t-11 -6.5h-39q-16 0 -29 17l-213 211q-10 10 -6 17z" />
<glyph unicode="&#xe1;" horiz-adv-x="1071" d="M109 248q0 131 87 183t265 52q215 0 338 -18v98q0 182 -68.5 251t-247.5 69h-247q-66 0 -66 51q0 10 4 12t23 2h286q209 0 299 -83t90 -281v-453q0 -47 12.5 -64.5t49.5 -17.5q31 0 36 -2t5 -12q0 -43 -74 -43q-98 0 -102 104q-150 -109 -391 -108q-299 0 -299 260z M182 246q0 -106 60.5 -150.5t177.5 -44.5q102 0 186 22.5t116 41t77 51.5v235q-102 18 -328 19q-147 0 -218 -35t-71 -139zM430 1241l182 225q12 18 35 19h35q35 0 8 -27l-190 -223q-12 -14 -29 -14h-35q-24 0 -6 20z" />
<glyph unicode="&#xe2;" horiz-adv-x="1071" d="M109 248q0 131 87 183t265 52q215 0 338 -18v98q0 182 -68.5 251t-247.5 69h-247q-66 0 -66 51q0 10 4 12t23 2h286q209 0 299 -83t90 -281v-453q0 -47 12.5 -64.5t49.5 -17.5q31 0 36 -2t5 -12q0 -43 -74 -43q-98 0 -102 104q-150 -109 -391 -108q-299 0 -299 260z M182 246q0 -106 60.5 -150.5t177.5 -44.5q102 0 186 22.5t116 41t77 51.5v235q-102 18 -328 19q-147 0 -218 -35t-71 -139zM254 1245l225 197q12 8 25 8h33q12 0 24 -8l225 -197q12 -10 7 -18t-17 -8h-26q-20 0 -39 18l-191 160l-190 -160q-23 -18 -41 -18h-23q-35 0 -12 26 z" />
<glyph unicode="&#xe3;" horiz-adv-x="1071" d="M109 248q0 131 87 183t265 52q215 0 338 -18v98q0 182 -68.5 251t-247.5 69h-247q-66 0 -66 51q0 10 4 12t23 2h286q209 0 299 -83t90 -281v-453q0 -47 12.5 -64.5t49.5 -17.5q31 0 36 -2t5 -12q0 -43 -74 -43q-98 0 -102 104q-150 -109 -391 -108q-299 0 -299 260z M182 246q0 -106 60.5 -150.5t177.5 -44.5q102 0 186 22.5t116 41t77 51.5v235q-102 18 -328 19q-147 0 -218 -35t-71 -139zM270 1266q0 49 34 89t93 40q66 0 129.5 -48.5t106.5 -48.5q29 0 50.5 19.5t23.5 54.5q2 18 24 19h17q20 0 20 -21q0 -59 -38 -95t-91 -36 q-66 0 -128 48t-105 48q-70 0 -74 -73q0 -16 -27 -17h-14q-21 1 -21 21z" />
<glyph unicode="&#xe4;" horiz-adv-x="1071" d="M109 248q0 131 87 183t265 52q215 0 338 -18v98q0 182 -68.5 251t-247.5 69h-247q-66 0 -66 51q0 10 4 12t23 2h286q209 0 299 -83t90 -281v-453q0 -47 12.5 -64.5t49.5 -17.5q31 0 36 -2t5 -12q0 -43 -74 -43q-98 0 -102 104q-150 -109 -391 -108q-299 0 -299 260z M182 246q0 -106 60.5 -150.5t177.5 -44.5q102 0 186 22.5t116 41t77 51.5v235q-102 18 -328 19q-147 0 -218 -35t-71 -139zM313 1266q0 23 14.5 36t34.5 13q55 0 56 -49q0 -47 -56 -47q-20 0 -34.5 13.5t-14.5 33.5zM631 1266q0 49 51 49q55 0 55 -49q0 -20 -15 -33.5 t-40 -13.5q-23 0 -37 13.5t-14 33.5z" />
<glyph unicode="&#xe5;" horiz-adv-x="1071" d="M109 248q0 131 87 183t265 52q215 0 338 -18v98q0 182 -68.5 251t-247.5 69h-247q-66 0 -66 51q0 10 4 12t23 2h286q209 0 299 -83t90 -281v-453q0 -47 12.5 -64.5t49.5 -17.5q31 0 36 -2t5 -12q0 -43 -74 -43q-98 0 -102 104q-150 -109 -391 -108q-299 0 -299 260z M182 246q0 -106 60.5 -150.5t177.5 -44.5q102 0 186 22.5t116 41t77 51.5v235q-102 18 -328 19q-147 0 -218 -35t-71 -139zM326 1399q0 84 55 139t141 55t142.5 -55t56.5 -139q0 -82 -56.5 -137.5t-142.5 -55.5t-141 55.5t-55 137.5zM391 1399q0 -63 39 -98t92 -35 q55 0 94 34.5t39 98.5q0 57 -36.5 96t-96 39t-95.5 -39t-36 -96z" />
<glyph unicode="&#xe6;" horiz-adv-x="1787" d="M111 248q0 131 87 183t265 52q215 0 338 -18v98q0 182 -69.5 251t-246.5 69h-247q-66 0 -66 51q0 10 4 12t23 2h284q162 0 251 -48t120 -159q102 221 383 222q213 0 318.5 -127t105.5 -363q0 -39 -39 -39h-743q2 -219 111.5 -304t307.5 -85q180 0 326 94q33 20 33 -6 q0 -43 -51 -76q-111 -80 -312 -80q-305 0 -420 166q-168 -156 -464 -155q-299 0 -299 260zM184 246q0 -106 60.5 -150.5t175.5 -44.5q266 0 426 150q-37 78 -43 192h-2v8q-102 18 -328 19q-147 0 -218 -35t-71 -139zM879 498h708q-4 399 -348 399q-168 0 -259 -103.5 t-101 -295.5z" />
<glyph unicode="&#xe7;" horiz-adv-x="1032" d="M127 463q0 231 120 365.5t347 134.5q203 0 301 -99q20 -23 20 -47q0 -31 -26 -14q-137 92 -291 92q-195 0 -294 -116.5t-99 -313.5q0 -190 95 -306t306 -116q147 0 295 82q29 12 31 4q2 -4 2 -10q0 -43 -41 -68q-102 -68 -268 -76v-34q0 -45 32.5 -73t72.5 -38t73 -46 t33 -99q0 -78 -62.5 -120t-159.5 -42q-100 0 -172 31q-23 10 -22 28v21q0 14 6 15t27 -5q86 -31 157 -31q162 0 162 103q0 49 -32.5 76.5t-71.5 36.5t-72 43t-33 93v41q-221 10 -328.5 141.5t-107.5 346.5z" />
<glyph unicode="&#xe8;" horiz-adv-x="1118" d="M129 449q0 252 111.5 383t324.5 131t318.5 -127t105.5 -363q0 -39 -39 -39h-743q2 -219 111.5 -304t308.5 -85q180 0 325 94q33 20 33 -6q0 -43 -51 -76q-111 -80 -311 -80q-236 0 -365 105.5t-129 366.5zM207 498h708q-4 399 -348 399q-168 0 -259 -103.5t-101 -295.5z M356 1449q4 7 19 7h35q24 0 36 -18l203 -213q8 -8 5 -14.5t-11 -6.5h-39q-16 0 -29 17l-213 211q-10 10 -6 17z" />
<glyph unicode="&#xe9;" horiz-adv-x="1118" d="M129 449q0 252 111.5 383t324.5 131t318.5 -127t105.5 -363q0 -39 -39 -39h-743q2 -219 111.5 -304t308.5 -85q180 0 325 94q33 20 33 -6q0 -43 -51 -76q-111 -80 -311 -80q-236 0 -365 105.5t-129 366.5zM207 498h708q-4 399 -348 399q-168 0 -259 -103.5t-101 -295.5z M477 1241l182 225q12 18 35 19h35q35 0 8 -27l-190 -223q-12 -14 -29 -14h-35q-24 0 -6 20z" />
<glyph unicode="&#xea;" horiz-adv-x="1118" d="M129 449q0 252 111.5 383t324.5 131t318.5 -127t105.5 -363q0 -39 -39 -39h-743q2 -219 111.5 -304t308.5 -85q180 0 325 94q33 20 33 -6q0 -43 -51 -76q-111 -80 -311 -80q-236 0 -365 105.5t-129 366.5zM207 498h708q-4 399 -348 399q-168 0 -259 -103.5t-101 -295.5z M301 1245l225 197q12 8 25 8h33q12 0 24 -8l226 -197q12 -10 7 -18t-18 -8h-26q-20 0 -39 18l-191 160l-190 -160q-23 -18 -41 -18h-23q-35 0 -12 26z" />
<glyph unicode="&#xeb;" horiz-adv-x="1118" d="M129 449q0 252 111.5 383t324.5 131t318.5 -127t105.5 -363q0 -39 -39 -39h-743q2 -219 111.5 -304t308.5 -85q180 0 325 94q33 20 33 -6q0 -43 -51 -76q-111 -80 -311 -80q-236 0 -365 105.5t-129 366.5zM207 498h708q-4 399 -348 399q-168 0 -259 -103.5t-101 -295.5z M360 1266q0 23 14.5 36t35.5 13q55 0 55 -49q0 -47 -55 -47q-20 0 -35 13.5t-15 33.5zM678 1266q0 49 51 49q55 0 55 -49q0 -20 -15 -33.5t-40 -13.5q-23 0 -37 13.5t-14 33.5z" />
<glyph unicode="&#xec;" horiz-adv-x="493" d="M28 1449q3 7 17 7h35q25 0 37 -18l202 -213q8 -8 5.5 -14.5t-11.5 -6.5h-39q-16 0 -28 17l-213 211q-8 10 -5 17zM203 94v826q0 28 14 28q59 0 59 -57v-770q0 -47 12.5 -64.5t47.5 -17.5q31 0 37 -2t6 -12q0 -43 -76 -43q-100 0 -100 112z" />
<glyph unicode="&#xed;" horiz-adv-x="493" d="M150 1241l182 225q12 18 35 19h34q35 0 9 -27l-191 -223q-12 -14 -29 -14h-34q-24 0 -6 20zM203 94v826q0 28 14 28q59 0 59 -57v-770q0 -47 12.5 -64.5t47.5 -17.5q31 0 37 -2t6 -12q0 -43 -76 -43q-100 0 -100 112z" />
<glyph unicode="&#xee;" horiz-adv-x="493" d="M-27 1245l226 197q12 8 24 8h33q12 0 25 -8l225 -197q12 -10 7 -18t-17 -8h-27q-20 0 -39 18l-190 160l-191 -160q-23 -18 -41 -18h-22q-35 0 -13 26zM203 94v826q0 28 14 28q59 0 59 -57v-770q0 -47 12.5 -64.5t47.5 -17.5q31 0 37 -2t6 -12q0 -43 -76 -43 q-100 0 -100 112z" />
<glyph unicode="&#xef;" horiz-adv-x="493" d="M33 1266q0 23 14 36t35 13q55 0 55 -49q0 -47 -55 -47q-20 0 -34.5 13.5t-14.5 33.5zM203 94v826q0 28 14 28q59 0 59 -57v-770q0 -47 12.5 -64.5t47.5 -17.5q31 0 37 -2t6 -12q0 -43 -76 -43q-100 0 -100 112zM350 1266q0 49 51 49q55 0 56 -49q0 -20 -15.5 -33.5 t-40.5 -13.5q-23 0 -37 13.5t-14 33.5z" />
<glyph unicode="&#xf0;" horiz-adv-x="1214" d="M129 483q0 205 123 308.5t313 103.5q236 0 400 -164q-10 301 -103 463l-131 -102q-47 -35 -78 -35h-35q-18 0 -25 5t-3 12t16 16l215 165q-115 145 -327 146q-166 0 -269 -60q-27 -16 -26 9q0 57 89 87.5t212 30.5q244 0 381 -168l145 115q43 35 76 35h35q20 0 27 -5 t3 -12.5t-16 -15.5l-229 -176q120 -207 120 -586q0 -342 -112.5 -512t-360.5 -170q-213 0 -326.5 137.5t-113.5 372.5zM207 481q0 -207 94 -323.5t268 -116.5q217 0 307.5 151.5t90.5 458.5q-154 176 -396 176q-164 0 -264 -84t-100 -262z" />
<glyph unicode="&#xf1;" horiz-adv-x="1142" d="M111 934q0 14 26 14h92q59 0 60 -57v-107q88 178 323 179q168 0 248 -91.5t80 -250.5v-490q0 -47 12.5 -64.5t46.5 -17.5q31 0 37 -2t6 -12q0 -43 -75 -43q-100 0 -101 112v512q0 281 -264 281q-137 0 -215 -73.5t-98 -196.5v-596q0 -20 -6.5 -25.5t-26.5 -5.5h-10 q-20 0 -26.5 5t-6.5 26v854h-53q-49 0 -49 49zM322 1266q0 49 33.5 89t93.5 40q66 0 129 -48.5t106 -48.5q29 0 50.5 19.5t23.5 54.5q4 18 24 19h17q20 0 20 -21q0 -59 -38 -95t-91 -36q-66 0 -128 48t-105 48q-70 0 -74 -73q0 -16 -27 -17h-14q-20 1 -20 21z" />
<glyph unicode="&#xf2;" horiz-adv-x="1200" d="M127 471q0 227 123 359.5t348 132.5q223 0 347 -133.5t124 -358.5t-124 -355t-347 -130q-225 0 -348 130t-123 355zM203 471.5q0 -192.5 102.5 -306.5t292.5 -114t292.5 114t102.5 306.5t-102.5 308t-292.5 115.5q-188 0 -291.5 -115.5t-103.5 -308zM389 1449q4 7 19 7 h34q25 0 37 -18l203 -213q8 -8 5 -14.5t-11 -6.5h-39q-16 0 -29 17l-213 211q-10 10 -6 17z" />
<glyph unicode="&#xf3;" horiz-adv-x="1200" d="M127 471q0 227 123 359.5t348 132.5q223 0 347 -133.5t124 -358.5t-124 -355t-347 -130q-225 0 -348 130t-123 355zM203 471.5q0 -192.5 102.5 -306.5t292.5 -114t292.5 114t102.5 306.5t-102.5 308t-292.5 115.5q-188 0 -291.5 -115.5t-103.5 -308zM512 1241l182 225 q12 18 35 19h35q35 0 8 -27l-190 -223q-12 -14 -29 -14h-35q-24 0 -6 20z" />
<glyph unicode="&#xf4;" horiz-adv-x="1200" d="M127 471q0 227 123 359.5t348 132.5q223 0 347 -133.5t124 -358.5t-124 -355t-347 -130q-225 0 -348 130t-123 355zM203 471.5q0 -192.5 102.5 -306.5t292.5 -114t292.5 114t102.5 306.5t-102.5 308t-292.5 115.5q-188 0 -291.5 -115.5t-103.5 -308zM334 1245l225 197 q12 8 25 8h32q12 0 25 -8l225 -197q12 -10 7 -18t-17 -8h-27q-20 0 -38 18l-191 160l-190 -160q-23 -18 -41 -18h-23q-35 0 -12 26z" />
<glyph unicode="&#xf5;" horiz-adv-x="1200" d="M127 471q0 227 123 359.5t348 132.5q223 0 347 -133.5t124 -358.5t-124 -355t-347 -130q-225 0 -348 130t-123 355zM203 471.5q0 -192.5 102.5 -306.5t292.5 -114t292.5 114t102.5 306.5t-102.5 308t-292.5 115.5q-188 0 -291.5 -115.5t-103.5 -308zM350 1266q0 49 34 89 t93 40q66 0 129.5 -48.5t106.5 -48.5q29 0 50 19.5t23 54.5q4 18 25 19h16q20 0 21 -21q0 -59 -38 -95t-91 -36q-66 0 -128.5 48t-105.5 48q-70 0 -73 -73q0 -16 -27 -17h-14q-21 1 -21 21z" />
<glyph unicode="&#xf6;" horiz-adv-x="1200" d="M127 471q0 227 123 359.5t348 132.5q223 0 347 -133.5t124 -358.5t-124 -355t-347 -130q-225 0 -348 130t-123 355zM203 471.5q0 -192.5 102.5 -306.5t292.5 -114t292.5 114t102.5 306.5t-102.5 308t-292.5 115.5q-188 0 -291.5 -115.5t-103.5 -308zM395 1266 q0 23 14.5 36t34.5 13q55 0 56 -49q0 -47 -56 -47q-20 0 -34.5 13.5t-14.5 33.5zM713 1266q0 49 51 49q55 0 55 -49q0 -20 -15.5 -33.5t-39.5 -13.5q-23 0 -37 13.5t-14 33.5z" />
<glyph unicode="&#xf7;" horiz-adv-x="1105" d="M68 477v15q0 18 5 22t27 4h826q23 0 27.5 -4t4.5 -22v-15q0 -18 -5 -22t-27 -4h-826q-23 0 -27.5 4t-4.5 22zM463 35q0 49 51 49q55 0 55 -49q0 -47 -55 -47q-23 0 -37 13.5t-14 33.5zM463 909q0 49 51 49q55 0 55 -49q0 -47 -55 -47q-23 0 -37 13.5t-14 33.5z" />
<glyph unicode="&#xf8;" horiz-adv-x="1200" d="M127 471q0 227 123 359.5t348 132.5q123 0 223 -45l66 108q12 18 47 18q43 0 22 -28l-77 -129q190 -131 190 -416q0 -225 -124 -355t-347 -130q-139 0 -238 49l-57 -94q-10 -20 -35 -21h-30q-25 0 -13 23l76 125q-174 127 -174 403zM203 471q0 -227 137 -340l442 725 q-82 39 -184 39q-188 0 -291.5 -115.5t-103.5 -308.5zM397 94q82 -43 201 -43q190 0 292.5 113.5t102.5 306.5q0 240 -153 352z" />
<glyph unicode="&#xf9;" horiz-adv-x="1142" d="M100 934q0 14 27 14h94q59 0 60 -57v-576q0 -258 243 -258q147 0 230.5 76t103.5 199v553h-53q-51 0 -51 49q0 14 26 14h94q59 0 60 -57v-760q0 -47 12 -64.5t47 -17.5q31 0 37 -2t6 -12q0 -43 -75 -43q-102 0 -103 112v70q-92 -184 -342 -184q-311 0 -311 325v570h-55 q-49 0 -50 49zM343 1449q3 7 17 7h35q25 0 37 -18l203 -213q8 -8 5 -14.5t-11 -6.5h-39q-16 0 -29 17l-213 211q-8 10 -5 17z" />
<glyph unicode="&#xfa;" horiz-adv-x="1142" d="M100 934q0 14 27 14h94q59 0 60 -57v-576q0 -258 243 -258q147 0 230.5 76t103.5 199v553h-53q-51 0 -51 49q0 14 26 14h94q59 0 60 -57v-760q0 -47 12 -64.5t47 -17.5q31 0 37 -2t6 -12q0 -43 -75 -43q-102 0 -103 112v70q-92 -184 -342 -184q-311 0 -311 325v570h-55 q-49 0 -50 49zM465 1241l182 225q12 18 35 19h35q35 0 8 -27l-190 -223q-12 -14 -29 -14h-35q-24 0 -6 20z" />
<glyph unicode="&#xfb;" horiz-adv-x="1142" d="M100 934q0 14 27 14h94q59 0 60 -57v-576q0 -258 243 -258q147 0 230.5 76t103.5 199v553h-53q-51 0 -51 49q0 14 26 14h94q59 0 60 -57v-760q0 -47 12 -64.5t47 -17.5q31 0 37 -2t6 -12q0 -43 -75 -43q-102 0 -103 112v70q-92 -184 -342 -184q-311 0 -311 325v570h-55 q-49 0 -50 49zM289 1245l225 197q12 8 25 8h32q12 0 25 -8l225 -197q12 -10 7 -18t-17 -8h-27q-20 0 -39 18l-190 160l-190 -160q-23 -18 -41 -18h-23q-35 0 -12 26z" />
<glyph unicode="&#xfc;" horiz-adv-x="1142" d="M100 934q0 14 27 14h94q59 0 60 -57v-576q0 -258 243 -258q147 0 230.5 76t103.5 199v553h-53q-51 0 -51 49q0 14 26 14h94q59 0 60 -57v-760q0 -47 12 -64.5t47 -17.5q31 0 37 -2t6 -12q0 -43 -75 -43q-102 0 -103 112v70q-92 -184 -342 -184q-311 0 -311 325v570h-55 q-49 0 -50 49zM348 1266q0 23 14.5 36t34.5 13q55 0 56 -49q0 -47 -56 -47q-20 0 -34.5 13.5t-14.5 33.5zM666 1266q0 49 51 49q55 0 55 -49q0 -20 -15.5 -33.5t-39.5 -13.5q-23 0 -37 13.5t-14 33.5z" />
<glyph unicode="&#xfd;" horiz-adv-x="1077" d="M57 934q0 14 27 14h100q37 0 49 -33l338 -819l326 791h-53q-49 6 -49 47q0 14 20 14h131q37 0 37 -18q0 -16 -14 -58l-453 -1103q-57 -137 -124.5 -187.5t-153.5 -50.5q-74 0 -121 23.5t-47 54.5q0 14 5 19t15 1q82 -31 137 -30q41 0 72 9t71.5 51t71.5 120l93 223 l-369 883h-57q-25 0 -38.5 15t-13.5 34zM424 1233l182 225q12 18 35 19h35q35 0 8 -27l-190 -223q-12 -14 -29 -15h-35q-24 1 -6 21z" />
<glyph unicode="&#xfe;" horiz-adv-x="1284" d="M199 -375v1790q0 23 5 29t23 6h17q18 0 23 -6t5 -29v-713q100 258 394 259q213 0 329.5 -135.5t116.5 -358.5t-116.5 -353t-331.5 -130q-291 0 -392 241v-600q0 -23 -5 -29t-23 -6h-17q-18 0 -23 6.5t-5 28.5zM276 465q0 -174 93.5 -294t287.5 -120q184 0 280.5 114 t96.5 302q0 193 -96 309.5t-279 116.5q-190 0 -286.5 -125t-96.5 -303z" />
<glyph unicode="&#xff;" horiz-adv-x="1077" d="M57 934q0 14 27 14h100q37 0 49 -33l338 -819l326 791h-53q-49 6 -49 47q0 14 20 14h131q37 0 37 -18q0 -16 -14 -58l-453 -1103q-57 -137 -124.5 -187.5t-153.5 -50.5q-74 0 -121 23.5t-47 54.5q0 14 5 19t15 1q82 -31 137 -30q41 0 72 9t71.5 51t71.5 120l93 223 l-369 883h-57q-25 0 -38.5 15t-13.5 34zM344 1257q0 23 14.5 36.5t34.5 13.5q55 0 56 -50q0 -47 -56 -47q-20 0 -34.5 13.5t-14.5 33.5zM662 1257q0 49 51 50q55 0 55 -50q0 -20 -15.5 -33.5t-39.5 -13.5q-23 0 -37 13.5t-14 33.5z" />
<glyph unicode="&#x152;" horiz-adv-x="1843" d="M145 727q0 354 166 558t490 204q141 0 260 -47q8 8 29 8h614q27 0 27 -14q0 -53 -74 -54h-529v-594h439q27 0 26 -14q0 -53 -73 -53h-392v-653h555q23 0 29 -5.5t6 -21.5v-12q0 -18 -6 -23.5t-29 -5.5h-614q-113 -27 -268 -27q-328 0 -492 202t-164 552zM223 729 q0 -111 19.5 -209t63.5 -187t109.5 -153.5t164 -102.5t221.5 -38q152 0 252 31v1300q-117 53 -252 53q-152 0 -266.5 -56t-181 -155.5t-98.5 -220.5t-32 -262z" />
<glyph unicode="&#x153;" horiz-adv-x="1988" d="M127 471q0 227 123 359.5t348 132.5q162 0 273.5 -73t160.5 -204q90 276 404 277q213 0 318.5 -127t105.5 -363q0 -39 -39 -39h-744q2 -219 111.5 -304t308.5 -85q180 0 326 94q33 20 32 -6q0 -43 -51 -76q-111 -80 -311 -80q-379 0 -467 267q-109 -258 -428 -258 q-225 0 -348 130t-123 355zM203 471.5q0 -192.5 102.5 -306.5t292.5 -114t292.5 114t102.5 306.5t-102.5 308t-292.5 115.5q-188 0 -291.5 -115.5t-103.5 -308zM1077 498h709q-4 399 -348 399q-168 0 -259.5 -103.5t-101.5 -295.5z" />
<glyph unicode="&#x178;" horiz-adv-x="1275" d="M23 1434q0 16 18 16h125q31 0 49 -33l432 -811l443 783h-72q-49 6 -49 45q0 16 22 16h162q51 0 16 -59l-485 -867v-489q0 -23 -6 -29t-29 -6h-8q-23 0 -28 6t-5 29v495l-463 859h-69q-53 8 -53 45zM444 1585q0 23 14.5 36t35.5 13q55 0 55 -49q0 -47 -55 -47 q-20 0 -35 13.5t-15 33.5zM762 1585q0 49 51 49q55 0 55 -49q0 -20 -15 -33.5t-40 -13.5q-23 0 -37 13.5t-14 33.5z" />
<glyph unicode="&#x2c6;" horiz-adv-x="1148" d="M170 1245l225 197q12 8 25 8h33q12 0 24 -8l225 -197q12 -10 7.5 -18t-17.5 -8h-26q-20 0 -39 18l-191 160l-190 -160q-23 -18 -41 -18h-23q-35 0 -12 26z" />
<glyph unicode="&#x2dc;" horiz-adv-x="1701" d="M264 1266q0 49 34 89t93 40q66 0 129.5 -48.5t106.5 -48.5q29 0 50 19.5t23 54.5q4 18 25 19h16q20 0 21 -21q0 -59 -38 -95t-91 -36q-66 0 -128.5 48t-105.5 48q-70 0 -73 -73q0 -16 -27 -17h-14q-21 1 -21 21z" />
<glyph unicode="&#x2000;" horiz-adv-x="958" />
<glyph unicode="&#x2001;" horiz-adv-x="1917" />
<glyph unicode="&#x2002;" horiz-adv-x="958" />
<glyph unicode="&#x2003;" horiz-adv-x="1917" />
<glyph unicode="&#x2004;" horiz-adv-x="639" />
<glyph unicode="&#x2005;" horiz-adv-x="479" />
<glyph unicode="&#x2006;" horiz-adv-x="319" />
<glyph unicode="&#x2007;" horiz-adv-x="319" />
<glyph unicode="&#x2008;" horiz-adv-x="239" />
<glyph unicode="&#x2009;" horiz-adv-x="383" />
<glyph unicode="&#x200a;" horiz-adv-x="106" />
<glyph unicode="&#x2010;" horiz-adv-x="806" d="M135 516v12q0 18 6 23.5t29 5.5h430q23 0 29 -5t6 -24v-12q0 -16 -6 -21.5t-29 -5.5h-430q-23 0 -29 4.5t-6 22.5z" />
<glyph unicode="&#x2011;" horiz-adv-x="806" d="M135 516v12q0 18 6 23.5t29 5.5h430q23 0 29 -5t6 -24v-12q0 -16 -6 -21.5t-29 -5.5h-430q-23 0 -29 4.5t-6 22.5z" />
<glyph unicode="&#x2012;" horiz-adv-x="806" d="M135 516v12q0 18 6 23.5t29 5.5h430q23 0 29 -5t6 -24v-12q0 -16 -6 -21.5t-29 -5.5h-430q-23 0 -29 4.5t-6 22.5z" />
<glyph unicode="&#x2013;" horiz-adv-x="1269" d="M78 526v17q0 16 5 20t28 4h954q20 0 25.5 -4t5.5 -20v-17q0 -16 -5.5 -20t-25.5 -4h-954q-23 0 -28 4t-5 20z" />
<glyph unicode="&#x2014;" horiz-adv-x="2269" d="M84 584v14q0 18 5 22.5t28 4.5h1976q20 0 25.5 -4.5t5.5 -22.5v-14q0 -18 -5 -22.5t-26 -4.5h-1976q-23 0 -28 4t-5 23z" />
<glyph unicode="&#x2018;" horiz-adv-x="462" d="M147 1196q2 8 7.5 19.5t20.5 33t30.5 42t49.5 65.5t64 86q8 8 16.5 2.5t4.5 -17.5q-35 -80 -59.5 -141t-32.5 -83.5t-12 -28.5q-12 -23 -35 -28t-40.5 9t-13.5 41z" />
<glyph unicode="&#x2019;" horiz-adv-x="471" d="M154 1167q35 80 59.5 141.5t32.5 84t12 28.5q12 23 34.5 28t40 -9.5t13.5 -40.5q-2 -8 -7 -19.5t-20.5 -33t-31 -42t-49 -65.5t-64.5 -86q-8 -8 -16 -3t-4 17z" />
<glyph unicode="&#x201a;" horiz-adv-x="448" d="M84 -205q35 80 59.5 141.5t32.5 84t12 28.5q12 23 35 28t40.5 -9.5t12.5 -40.5q-2 -8 -7 -19.5t-20.5 -33t-30.5 -42t-49 -65.5t-65 -86q-8 -8 -16 -3t-4 17z" />
<glyph unicode="&#x201c;" horiz-adv-x="673" d="M147 1196q2 8 7.5 19.5t20.5 33t30.5 42t49.5 65.5t64 86q8 8 16.5 2.5t4.5 -17.5q-35 -80 -59.5 -141t-32.5 -83.5t-12 -28.5q-12 -23 -35 -28t-40.5 9t-13.5 41zM358 1196q2 8 7.5 19.5t20.5 33t30.5 42t49.5 65.5t64 86q8 8 16.5 2.5t4.5 -17.5q-35 -80 -59.5 -141 t-32.5 -83.5t-13 -28.5q-12 -23 -34.5 -28t-40 9t-13.5 41z" />
<glyph unicode="&#x201d;" horiz-adv-x="681" d="M154 1167q35 80 59.5 141.5t32.5 84t12 28.5q12 23 34.5 28t40 -9.5t13.5 -40.5q-2 -8 -7 -19.5t-20.5 -33t-31 -42t-49 -65.5t-64.5 -86q-8 -8 -16 -3t-4 17zM365 1167q35 80 59.5 141.5t32.5 84t12 28.5q12 23 34.5 28t40 -9.5t13.5 -40.5q-2 -8 -7 -19.5t-20.5 -33 t-31 -42t-49 -65.5t-64.5 -86q-8 -8 -16 -3t-4 17z" />
<glyph unicode="&#x201e;" horiz-adv-x="651" d="M84 -205q35 80 59.5 141.5t32.5 84t12 28.5q12 23 35 28t40.5 -9.5t12.5 -40.5q-2 -8 -7 -19.5t-20.5 -33t-30.5 -42t-49 -65.5t-65 -86q-8 -8 -16 -3t-4 17zM305 -205q35 80 59.5 141.5t33 84t12.5 28.5q12 23 34.5 28t40 -9.5t13.5 -40.5q-2 -8 -7.5 -19.5t-20.5 -33 t-30.5 -42t-49.5 -65.5t-64 -86q-8 -8 -16.5 -3t-4.5 17z" />
<glyph unicode="&#x2022;" horiz-adv-x="636" d="M223 588q0 41 26.5 65.5t67.5 24.5q43 0 70 -24.5t27 -65.5t-27 -64.5t-70 -23.5q-41 0 -67.5 23.5t-26.5 64.5z" />
<glyph unicode="&#x2026;" horiz-adv-x="1368" d="M170 35q0 49 51 49q55 0 55 -49q0 -47 -55 -47q-23 0 -37 13.5t-14 33.5zM631 35q0 49 51 49q55 0 55 -49q0 -47 -55 -47q-23 0 -37 13.5t-14 33.5zM1092 35q0 49 51 49q55 0 55 -49q0 -47 -55 -47q-23 0 -37 13.5t-14 33.5z" />
<glyph unicode="&#x202f;" horiz-adv-x="383" />
<glyph unicode="&#x2039;" horiz-adv-x="600" d="M117 473l284 451q14 23 31 22h33q29 0 16 -20l-286 -453l286 -453q12 -20 -16 -20h-33q-17 0 -31 23z" />
<glyph unicode="&#x203a;" horiz-adv-x="600" d="M119 20l284 453l-284 453q-14 20 16 20h31q18 0 33 -22l284 -451l-284 -450q-14 -23 -33 -23h-31q-31 0 -16 20z" />
<glyph unicode="&#x205f;" horiz-adv-x="479" />
<glyph unicode="&#x20ac;" horiz-adv-x="1595" d="M119 518v14q0 18 5 22.5t26 4.5h206q-8 63 -8 152v55h-198q-20 0 -25.5 4t-5.5 23v14q0 18 5 22.5t26 4.5h204q29 309 204 483t495 174q246 0 366 -96q37 -29 37 -62q0 -16 -8 -17t-37 15q-170 92 -356 92q-289 0 -443.5 -157.5t-181.5 -431.5h459q20 0 25.5 -4.5 t5.5 -22.5v-14q0 -18 -5.5 -22.5t-25.5 -4.5h-465v-57q0 -86 8 -150h457q20 0 25.5 -4t5.5 -23v-14q0 -18 -5.5 -22t-25.5 -4h-445q96 -451 611 -451q90 0 163.5 12.5t114.5 25.5t113 44q27 12 27 -14q0 -23 -21 -41q-43 -37 -151.5 -66t-249.5 -29q-582 0 -682 519h-219 q-20 0 -25.5 4t-5.5 22z" />
<glyph unicode="&#x2122;" horiz-adv-x="1464" d="M100 1430q0 20 19 20h440q18 0 19 -16v-27q0 -12 -19 -12h-182v-629q0 -18 -21 -18h-20q-23 0 -23 18v629h-143q-70 0 -70 35zM731 1438q0 12 17 12h61q16 0 27 -16l170 -291l188 291q10 16 20 16h25q16 0 20.5 -4t4.5 -21v-659q0 -18 -21 -18h-20q-23 0 -23 18v573 l-156 -243q-12 -19 -26 -19h-23q-14 0 -24 19l-144 231v-561q0 -18 -20 -18h-21q-23 0 -22 18v637q-12 2 -22.5 14.5t-10.5 20.5z" />
<glyph unicode="&#x25fc;" horiz-adv-x="952" d="M0 0v952h952v-952h-952z" />
</font>
</defs>
</svg>
